<?xml version="1.0" encoding="UTF-8" standalone="no"?>
<!DOCTYPE svg PUBLIC "-//W3C//DTD SVG 1.1//EN"
 "http://www.w3.org/Graphics/SVG/1.1/DTD/svg11.dtd">
<!-- Generated by graphviz version 2.40.1 (20161225.0304)
 -->
<!-- Title: async/header/async.h Pages: 1 -->
<svg width="266pt" height="84pt"
 viewBox="0.00 0.00 266.00 84.00" xmlns="http://www.w3.org/2000/svg" xmlns:xlink="http://www.w3.org/1999/xlink">
<g id="graph0" class="graph" transform="scale(1 1) rotate(0) translate(4 80)">
<title>async/header/async.h</title>
<!-- Node2 -->
<g id="node1" class="node">
<title>Node2</title>
<polygon fill="#bfbfbf" stroke="#000000" points="65,-56.5 65,-75.5 187,-75.5 187,-56.5 65,-56.5"/>
<text text-anchor="middle" x="126" y="-63.5" font-family="Helvetica,sans-Serif" font-size="10.00" fill="#000000">async/header/async.h</text>
</g>
<!-- Node3 -->
<g id="node2" class="node">
<title>Node3</title>
<g id="a_node2"><a xlink:href="async_8cpp.html" target="_top" xlink:title="async library implementation ">
<polygon fill="none" stroke="#000000" points="0,-.5 0,-19.5 114,-19.5 114,-.5 0,-.5"/>
<text text-anchor="middle" x="57" y="-7.5" font-family="Helvetica,sans-Serif" font-size="10.00" fill="#000000">async/src/async.cpp</text>
</a>
</g>
</g>
<!-- Node2&#45;&gt;Node3 -->
<g id="edge1" class="edge">
<title>Node2&#45;&gt;Node3</title>
<path fill="none" stroke="#191970" d="M106.197,-49.928C94.1364,-40.1397 79.1286,-27.9595 68.8812,-19.6427"/>
<polygon fill="#191970" stroke="#191970" points="104.0109,-52.6614 113.9811,-56.2455 108.4221,-47.2262 104.0109,-52.6614"/>
</g>
<!-- Node4 -->
<g id="node3" class="node">
<title>Node4</title>
<g id="a_node3"><a xlink:href="main_8cpp.html" target="_top" xlink:title="async_demo/main.cpp">
<polygon fill="none" stroke="#000000" points="132,-.5 132,-19.5 258,-19.5 258,-.5 132,-.5"/>
<text text-anchor="middle" x="195" y="-7.5" font-family="Helvetica,sans-Serif" font-size="10.00" fill="#000000">async_demo/main.cpp</text>
</a>
</g>
</g>
<!-- Node2&#45;&gt;Node4 -->
<g id="edge2" class="edge">
<title>Node2&#45;&gt;Node4</title>
<path fill="none" stroke="#191970" d="M145.803,-49.928C157.8636,-40.1397 172.8714,-27.9595 183.1188,-19.6427"/>
<polygon fill="#191970" stroke="#191970" points="143.5779,-47.2262 138.0189,-56.2455 147.9891,-52.6614 143.5779,-47.2262"/>
</g>
</g>
</svg>
