<?xml version="1.0" encoding="UTF-8" standalone="no"?>
<!DOCTYPE svg PUBLIC "-//W3C//DTD SVG 1.1//EN"
 "http://www.w3.org/Graphics/SVG/1.1/DTD/svg11.dtd">
<!-- Generated by graphviz version 2.40.1 (20161225.0304)
 -->
<!-- Title: async/src/async.cpp Pages: 1 -->
<svg width="1176pt" height="196pt"
 viewBox="0.00 0.00 1175.50 196.00" xmlns="http://www.w3.org/2000/svg" xmlns:xlink="http://www.w3.org/1999/xlink">
<g id="graph0" class="graph" transform="scale(1 1) rotate(0) translate(4 192)">
<title>async/src/async.cpp</title>
<!-- Node0 -->
<g id="node1" class="node">
<title>Node0</title>
<polygon fill="#bfbfbf" stroke="#000000" points="182.5,-168.5 182.5,-187.5 296.5,-187.5 296.5,-168.5 182.5,-168.5"/>
<text text-anchor="middle" x="239.5" y="-175.5" font-family="Helvetica,sans-Serif" font-size="10.00" fill="#000000">async/src/async.cpp</text>
</g>
<!-- Node1 -->
<g id="node2" class="node">
<title>Node1</title>
<g id="a_node2"><a xlink:href="async_8h.html" target="_top" xlink:title="Home work 8 &#45; asyn library. Separates incoming commands to bulks and outputs it to console and files...">
<polygon fill="none" stroke="#000000" points="56.5,-112.5 56.5,-131.5 110.5,-131.5 110.5,-112.5 56.5,-112.5"/>
<text text-anchor="middle" x="83.5" y="-119.5" font-family="Helvetica,sans-Serif" font-size="10.00" fill="#000000">async.h</text>
</a>
</g>
</g>
<!-- Node0&#45;&gt;Node1 -->
<g id="edge1" class="edge">
<title>Node0&#45;&gt;Node1</title>
<path fill="none" stroke="#191970" d="M212.6826,-168.3733C186.9668,-159.1419 147.962,-145.1402 119.5401,-134.9375"/>
<polygon fill="#191970" stroke="#191970" points="120.5619,-131.5857 109.9674,-131.5011 118.1968,-138.174 120.5619,-131.5857"/>
</g>
<!-- Node3 -->
<g id="node4" class="node">
<title>Node3</title>
<g id="a_node4"><a xlink:href="context__manager_8h.html" target="_top" xlink:title="Thread safe context Manager. ">
<polygon fill="none" stroke="#000000" points="184.5,-112.5 184.5,-131.5 294.5,-131.5 294.5,-112.5 184.5,-112.5"/>
<text text-anchor="middle" x="239.5" y="-119.5" font-family="Helvetica,sans-Serif" font-size="10.00" fill="#000000">context_manager.h</text>
</a>
</g>
</g>
<!-- Node0&#45;&gt;Node3 -->
<g id="edge3" class="edge">
<title>Node0&#45;&gt;Node3</title>
<path fill="none" stroke="#191970" d="M239.5,-168.2455C239.5,-160.9382 239.5,-150.6944 239.5,-141.7046"/>
<polygon fill="#191970" stroke="#191970" points="243.0001,-141.6426 239.5,-131.6427 236.0001,-141.6427 243.0001,-141.6426"/>
</g>
<!-- Node9 -->
<g id="node10" class="node">
<title>Node9</title>
<g id="a_node10"><a xlink:href="bulk__proc_8h_source.html" target="_top" xlink:title="bulk_proc.h">
<polygon fill="none" stroke="#000000" points="695,-112.5 695,-131.5 768,-131.5 768,-112.5 695,-112.5"/>
<text text-anchor="middle" x="731.5" y="-119.5" font-family="Helvetica,sans-Serif" font-size="10.00" fill="#000000">bulk_proc.h</text>
</a>
</g>
</g>
<!-- Node0&#45;&gt;Node9 -->
<g id="edge9" class="edge">
<title>Node0&#45;&gt;Node9</title>
<path fill="none" stroke="#191970" d="M296.9016,-171.4665C395.265,-160.2706 594.168,-137.6313 684.7114,-127.3255"/>
<polygon fill="#191970" stroke="#191970" points="685.1451,-130.7989 694.6851,-126.1903 684.3534,-123.8438 685.1451,-130.7989"/>
</g>
<!-- Node2 -->
<g id="node3" class="node">
<title>Node2</title>
<polygon fill="none" stroke="#bfbfbf" points="0,-56.5 0,-75.5 53,-75.5 53,-56.5 0,-56.5"/>
<text text-anchor="middle" x="26.5" y="-63.5" font-family="Helvetica,sans-Serif" font-size="10.00" fill="#000000">cstddef</text>
</g>
<!-- Node1&#45;&gt;Node2 -->
<g id="edge2" class="edge">
<title>Node1&#45;&gt;Node2</title>
<path fill="none" stroke="#191970" d="M73.5714,-112.2455C65.3162,-104.1352 53.3791,-92.4075 43.5918,-82.7919"/>
<polygon fill="#191970" stroke="#191970" points="45.9011,-80.1542 36.3149,-75.6427 40.9954,-85.1476 45.9011,-80.1542"/>
</g>
<!-- Node4 -->
<g id="node5" class="node">
<title>Node4</title>
<polygon fill="none" stroke="#bfbfbf" points="351.5,-.5 351.5,-19.5 409.5,-19.5 409.5,-.5 351.5,-.5"/>
<text text-anchor="middle" x="380.5" y="-7.5" font-family="Helvetica,sans-Serif" font-size="10.00" fill="#000000">memory</text>
</g>
<!-- Node3&#45;&gt;Node4 -->
<g id="edge4" class="edge">
<title>Node3&#45;&gt;Node4</title>
<path fill="none" stroke="#191970" d="M284.9819,-112.4704C320.2885,-104.0751 365.0949,-90.8881 376.5,-76 386.415,-63.057 386.5594,-44.1601 384.7228,-29.8999"/>
<polygon fill="#191970" stroke="#191970" points="388.1076,-28.9279 382.9741,-19.6599 381.2075,-30.1064 388.1076,-28.9279"/>
</g>
<!-- Node5 -->
<g id="node6" class="node">
<title>Node5</title>
<polygon fill="none" stroke="#bfbfbf" points="71.5,-56.5 71.5,-75.5 109.5,-75.5 109.5,-56.5 71.5,-56.5"/>
<text text-anchor="middle" x="90.5" y="-63.5" font-family="Helvetica,sans-Serif" font-size="10.00" fill="#000000">map</text>
</g>
<!-- Node3&#45;&gt;Node5 -->
<g id="edge5" class="edge">
<title>Node3&#45;&gt;Node5</title>
<path fill="none" stroke="#191970" d="M213.886,-112.3733C187.5046,-102.4581 146.4804,-87.0396 119.0658,-76.7361"/>
<polygon fill="#191970" stroke="#191970" points="120.2258,-73.4331 109.6337,-73.1912 117.7631,-79.9856 120.2258,-73.4331"/>
</g>
<!-- Node6 -->
<g id="node7" class="node">
<title>Node6</title>
<polygon fill="none" stroke="#bfbfbf" points="128,-56.5 128,-75.5 197,-75.5 197,-56.5 128,-56.5"/>
<text text-anchor="middle" x="162.5" y="-63.5" font-family="Helvetica,sans-Serif" font-size="10.00" fill="#000000">type_traits</text>
</g>
<!-- Node3&#45;&gt;Node6 -->
<g id="edge6" class="edge">
<title>Node3&#45;&gt;Node6</title>
<path fill="none" stroke="#191970" d="M226.0876,-112.2455C214.4943,-103.814 197.5252,-91.4729 184.0322,-81.6598"/>
<polygon fill="#191970" stroke="#191970" points="185.9047,-78.6938 175.7587,-75.6427 181.7874,-84.355 185.9047,-78.6938"/>
</g>
<!-- Node7 -->
<g id="node8" class="node">
<title>Node7</title>
<polygon fill="none" stroke="#bfbfbf" points="215.5,-56.5 215.5,-75.5 263.5,-75.5 263.5,-56.5 215.5,-56.5"/>
<text text-anchor="middle" x="239.5" y="-63.5" font-family="Helvetica,sans-Serif" font-size="10.00" fill="#000000">mutex</text>
</g>
<!-- Node3&#45;&gt;Node7 -->
<g id="edge7" class="edge">
<title>Node3&#45;&gt;Node7</title>
<path fill="none" stroke="#191970" d="M239.5,-112.2455C239.5,-104.9382 239.5,-94.6944 239.5,-85.7046"/>
<polygon fill="#191970" stroke="#191970" points="243.0001,-85.6426 239.5,-75.6427 236.0001,-85.6427 243.0001,-85.6426"/>
</g>
<!-- Node8 -->
<g id="node9" class="node">
<title>Node8</title>
<polygon fill="none" stroke="#bfbfbf" points="281.5,-56.5 281.5,-75.5 367.5,-75.5 367.5,-56.5 281.5,-56.5"/>
<text text-anchor="middle" x="324.5" y="-63.5" font-family="Helvetica,sans-Serif" font-size="10.00" fill="#000000">shared_mutex</text>
</g>
<!-- Node3&#45;&gt;Node8 -->
<g id="edge8" class="edge">
<title>Node3&#45;&gt;Node8</title>
<path fill="none" stroke="#191970" d="M254.3059,-112.2455C267.2256,-103.7337 286.1931,-91.2375 301.1552,-81.3801"/>
<polygon fill="#191970" stroke="#191970" points="303.4387,-84.067 309.8638,-75.6427 299.5876,-78.2216 303.4387,-84.067"/>
</g>
<!-- Node9&#45;&gt;Node4 -->
<g id="edge25" class="edge">
<title>Node9&#45;&gt;Node4</title>
<path fill="none" stroke="#191970" d="M694.8213,-114.7582C656.4119,-106.7843 594.5532,-92.8355 542.5,-76 495.3637,-60.7548 442.5213,-38.1401 410.3836,-23.7378"/>
<polygon fill="#191970" stroke="#191970" points="411.6582,-20.4731 401.1037,-19.549 408.7782,-26.8533 411.6582,-20.4731"/>
</g>
<!-- Node10 -->
<g id="node11" class="node">
<title>Node10</title>
<g id="a_node11"><a xlink:href="bulk_8h.html" target="_top" xlink:title="Bulk, StaticBulk and DynamicBulk structures declaration. ">
<polygon fill="none" stroke="#000000" points="552,-56.5 552,-75.5 599,-75.5 599,-56.5 552,-56.5"/>
<text text-anchor="middle" x="575.5" y="-63.5" font-family="Helvetica,sans-Serif" font-size="10.00" fill="#000000">bulk.h</text>
</a>
</g>
</g>
<!-- Node9&#45;&gt;Node10 -->
<g id="edge10" class="edge">
<title>Node9&#45;&gt;Node10</title>
<path fill="none" stroke="#191970" d="M704.6826,-112.3733C678.1875,-102.8622 637.5859,-88.2872 608.9861,-78.0207"/>
<polygon fill="#191970" stroke="#191970" points="610.0079,-74.6688 599.4134,-74.5843 607.6428,-81.2572 610.0079,-74.6688"/>
</g>
<!-- Node15 -->
<g id="node16" class="node">
<title>Node15</title>
<g id="a_node16"><a xlink:href="workers__pool_8h.html" target="_top" xlink:title="Simple thread pool declaration. ">
<polygon fill="none" stroke="#000000" points="795,-56.5 795,-75.5 886,-75.5 886,-56.5 795,-56.5"/>
<text text-anchor="middle" x="840.5" y="-63.5" font-family="Helvetica,sans-Serif" font-size="10.00" fill="#000000">workers_pool.h</text>
</a>
</g>
</g>
<!-- Node9&#45;&gt;Node15 -->
<g id="edge16" class="edge">
<title>Node9&#45;&gt;Node15</title>
<path fill="none" stroke="#191970" d="M750.4864,-112.2455C767.6792,-103.4125 793.2238,-90.2887 812.7132,-80.2758"/>
<polygon fill="#191970" stroke="#191970" points="814.4359,-83.3257 821.7312,-75.6427 811.237,-77.0993 814.4359,-83.3257"/>
</g>
<!-- Node17 -->
<g id="node18" class="node">
<title>Node17</title>
<polygon fill="none" stroke="#bfbfbf" points="699,-.5 699,-19.5 764,-19.5 764,-.5 699,-.5"/>
<text text-anchor="middle" x="731.5" y="-7.5" font-family="Helvetica,sans-Serif" font-size="10.00" fill="#000000">functional</text>
</g>
<!-- Node9&#45;&gt;Node17 -->
<g id="edge24" class="edge">
<title>Node9&#45;&gt;Node17</title>
<path fill="none" stroke="#191970" d="M731.5,-112.4509C731.5,-94.184 731.5,-53.9553 731.5,-29.6976"/>
<polygon fill="#191970" stroke="#191970" points="735.0001,-29.5249 731.5,-19.5249 728.0001,-29.5249 735.0001,-29.5249"/>
</g>
<!-- Node20 -->
<g id="node21" class="node">
<title>Node20</title>
<polygon fill="none" stroke="#bfbfbf" points="1042,-.5 1042,-19.5 1089,-19.5 1089,-.5 1042,-.5"/>
<text text-anchor="middle" x="1065.5" y="-7.5" font-family="Helvetica,sans-Serif" font-size="10.00" fill="#000000">queue</text>
</g>
<!-- Node9&#45;&gt;Node20 -->
<g id="edge27" class="edge">
<title>Node9&#45;&gt;Node20</title>
<path fill="none" stroke="#191970" d="M768.05,-112.7302C801.281,-104.0555 851.541,-90.3174 894.5,-76 943.5467,-59.6537 999.2105,-37.4737 1033.3394,-23.4478"/>
<polygon fill="#191970" stroke="#191970" points="1034.8822,-26.5975 1042.7896,-19.546 1032.2107,-20.1273 1034.8822,-26.5975"/>
</g>
<!-- Node21 -->
<g id="node22" class="node">
<title>Node21</title>
<polygon fill="none" stroke="#bfbfbf" points="1107.5,-.5 1107.5,-19.5 1167.5,-19.5 1167.5,-.5 1107.5,-.5"/>
<text text-anchor="middle" x="1137.5" y="-7.5" font-family="Helvetica,sans-Serif" font-size="10.00" fill="#000000">iostream</text>
</g>
<!-- Node9&#45;&gt;Node21 -->
<g id="edge26" class="edge">
<title>Node9&#45;&gt;Node21</title>
<path fill="none" stroke="#191970" d="M768.2396,-114.8008C809.2824,-106.5073 877.5713,-91.9568 935.5,-76 994.1946,-59.8322 1061.1519,-37.0848 1101.3322,-22.9577"/>
<polygon fill="#191970" stroke="#191970" points="1102.6857,-26.1916 1110.9492,-19.5611 1100.3544,-19.5912 1102.6857,-26.1916"/>
</g>
<!-- Node10&#45;&gt;Node4 -->
<g id="edge13" class="edge">
<title>Node10&#45;&gt;Node4</title>
<path fill="none" stroke="#191970" d="M551.9784,-59.2451C519.1772,-49.8253 459.2766,-32.623 419.6746,-21.2501"/>
<polygon fill="#191970" stroke="#191970" points="420.403,-17.8179 409.8254,-18.4216 418.4708,-24.546 420.403,-17.8179"/>
</g>
<!-- Node11 -->
<g id="node12" class="node">
<title>Node11</title>
<polygon fill="none" stroke="#bfbfbf" points="634,-.5 634,-19.5 681,-19.5 681,-.5 634,-.5"/>
<text text-anchor="middle" x="657.5" y="-7.5" font-family="Helvetica,sans-Serif" font-size="10.00" fill="#000000">vector</text>
</g>
<!-- Node10&#45;&gt;Node11 -->
<g id="edge11" class="edge">
<title>Node10&#45;&gt;Node11</title>
<path fill="none" stroke="#191970" d="M589.7833,-56.2455C602.247,-47.7337 620.5451,-35.2375 634.9792,-25.3801"/>
<polygon fill="#191970" stroke="#191970" points="637.0962,-28.1726 643.3804,-19.6427 633.1485,-22.392 637.0962,-28.1726"/>
</g>
<!-- Node12 -->
<g id="node13" class="node">
<title>Node12</title>
<polygon fill="none" stroke="#bfbfbf" points="427.5,-.5 427.5,-19.5 471.5,-19.5 471.5,-.5 427.5,-.5"/>
<text text-anchor="middle" x="449.5" y="-7.5" font-family="Helvetica,sans-Serif" font-size="10.00" fill="#000000">string</text>
</g>
<!-- Node10&#45;&gt;Node12 -->
<g id="edge12" class="edge">
<title>Node10&#45;&gt;Node12</title>
<path fill="none" stroke="#191970" d="M553.8398,-56.3733C533.5228,-47.3435 502.936,-33.7494 480.125,-23.6111"/>
<polygon fill="#191970" stroke="#191970" points="481.4372,-20.3642 470.8775,-19.5011 478.5941,-26.7609 481.4372,-20.3642"/>
</g>
<!-- Node13 -->
<g id="node14" class="node">
<title>Node13</title>
<polygon fill="none" stroke="#bfbfbf" points="490,-.5 490,-19.5 547,-19.5 547,-.5 490,-.5"/>
<text text-anchor="middle" x="518.5" y="-7.5" font-family="Helvetica,sans-Serif" font-size="10.00" fill="#000000">ostream</text>
</g>
<!-- Node10&#45;&gt;Node13 -->
<g id="edge14" class="edge">
<title>Node10&#45;&gt;Node13</title>
<path fill="none" stroke="#191970" d="M565.5714,-56.2455C557.3162,-48.1352 545.3791,-36.4075 535.5918,-26.7919"/>
<polygon fill="#191970" stroke="#191970" points="537.9011,-24.1542 528.3149,-19.6427 532.9954,-29.1476 537.9011,-24.1542"/>
</g>
<!-- Node14 -->
<g id="node15" class="node">
<title>Node14</title>
<polygon fill="none" stroke="#bfbfbf" points="565.5,-.5 565.5,-19.5 615.5,-19.5 615.5,-.5 565.5,-.5"/>
<text text-anchor="middle" x="590.5" y="-7.5" font-family="Helvetica,sans-Serif" font-size="10.00" fill="#000000">chrono</text>
</g>
<!-- Node10&#45;&gt;Node14 -->
<g id="edge15" class="edge">
<title>Node10&#45;&gt;Node14</title>
<path fill="none" stroke="#191970" d="M578.1128,-56.2455C580.0916,-48.8579 582.8744,-38.4689 585.3012,-29.4087"/>
<polygon fill="#191970" stroke="#191970" points="588.7105,-30.2078 587.9171,-19.6427 581.9489,-28.3966 588.7105,-30.2078"/>
</g>
<!-- Node15&#45;&gt;Node11 -->
<g id="edge18" class="edge">
<title>Node15&#45;&gt;Node11</title>
<path fill="none" stroke="#191970" d="M808.9562,-56.4626C780.4233,-47.8197 736.9968,-34.6262 691.0891,-20.478"/>
<polygon fill="#191970" stroke="#191970" points="691.8471,-17.0491 681.2597,-17.4457 689.7836,-23.7381 691.8471,-17.0491"/>
</g>
<!-- Node16 -->
<g id="node17" class="node">
<title>Node16</title>
<polygon fill="none" stroke="#bfbfbf" points="782.5,-.5 782.5,-19.5 830.5,-19.5 830.5,-.5 782.5,-.5"/>
<text text-anchor="middle" x="806.5" y="-7.5" font-family="Helvetica,sans-Serif" font-size="10.00" fill="#000000">thread</text>
</g>
<!-- Node15&#45;&gt;Node16 -->
<g id="edge17" class="edge">
<title>Node15&#45;&gt;Node16</title>
<path fill="none" stroke="#191970" d="M834.5777,-56.2455C829.8973,-48.5367 823.2327,-37.5598 817.5711,-28.2348"/>
<polygon fill="#191970" stroke="#191970" points="820.5361,-26.3741 812.3545,-19.6427 814.5525,-30.007 820.5361,-26.3741"/>
</g>
<!-- Node15&#45;&gt;Node17 -->
<g id="edge19" class="edge">
<title>Node15&#45;&gt;Node17</title>
<path fill="none" stroke="#191970" d="M821.5136,-56.2455C804.3208,-47.4125 778.7762,-34.2887 759.2868,-24.2758"/>
<polygon fill="#191970" stroke="#191970" points="760.763,-21.0993 750.2688,-19.6427 757.5641,-27.3257 760.763,-21.0993"/>
</g>
<!-- Node18 -->
<g id="node19" class="node">
<title>Node18</title>
<polygon fill="none" stroke="#bfbfbf" points="848.5,-.5 848.5,-19.5 898.5,-19.5 898.5,-.5 848.5,-.5"/>
<text text-anchor="middle" x="873.5" y="-7.5" font-family="Helvetica,sans-Serif" font-size="10.00" fill="#000000">atomic</text>
</g>
<!-- Node15&#45;&gt;Node18 -->
<g id="edge20" class="edge">
<title>Node15&#45;&gt;Node18</title>
<path fill="none" stroke="#191970" d="M846.2482,-56.2455C850.7435,-48.617 857.1248,-37.7881 862.5825,-28.5267"/>
<polygon fill="#191970" stroke="#191970" points="865.7561,-30.035 867.8177,-19.6427 859.7253,-26.4811 865.7561,-30.035"/>
</g>
<!-- Node19 -->
<g id="node20" class="node">
<title>Node19</title>
<polygon fill="none" stroke="#bfbfbf" points="917,-.5 917,-19.5 1024,-19.5 1024,-.5 917,-.5"/>
<text text-anchor="middle" x="970.5" y="-7.5" font-family="Helvetica,sans-Serif" font-size="10.00" fill="#000000">condition_variable</text>
</g>
<!-- Node15&#45;&gt;Node19 -->
<g id="edge21" class="edge">
<title>Node15&#45;&gt;Node19</title>
<path fill="none" stroke="#191970" d="M862.8478,-56.3733C883.9033,-47.3032 915.6495,-33.6279 939.2175,-23.4755"/>
<polygon fill="#191970" stroke="#191970" points="940.6444,-26.6719 948.4438,-19.5011 937.875,-20.243 940.6444,-26.6719"/>
</g>
<!-- Node15&#45;&gt;Node20 -->
<g id="edge22" class="edge">
<title>Node15&#45;&gt;Node20</title>
<path fill="none" stroke="#191970" d="M883.3881,-56.4883C920.286,-48.1341 975.1449,-35.3084 1031.891,-20.0505"/>
<polygon fill="#191970" stroke="#191970" points="1033.0183,-23.3713 1041.7553,-17.3784 1031.188,-16.6148 1033.0183,-23.3713"/>
</g>
<!-- Node15&#45;&gt;Node21 -->
<g id="edge23" class="edge">
<title>Node15&#45;&gt;Node21</title>
<path fill="none" stroke="#191970" d="M886.375,-58.881C935.9995,-50.9445 1017.6488,-37.205 1097.1349,-20.178"/>
<polygon fill="#191970" stroke="#191970" points="1098.285,-23.5103 1107.3192,-17.9755 1096.8053,-16.6685 1098.285,-23.5103"/>
</g>
</g>
</svg>
