<?xml version="1.0" encoding="UTF-8" standalone="no"?>
<!DOCTYPE svg PUBLIC "-//W3C//DTD SVG 1.1//EN"
 "http://www.w3.org/Graphics/SVG/1.1/DTD/svg11.dtd">
<!-- Generated by graphviz version 2.40.1 (20161225.0304)
 -->
<!-- Title: async/include/bulk.h Pages: 1 -->
<svg width="315pt" height="151pt"
 viewBox="0.00 0.00 314.50 151.00" xmlns="http://www.w3.org/2000/svg" xmlns:xlink="http://www.w3.org/1999/xlink">
<g id="graph0" class="graph" transform="scale(1 1) rotate(0) translate(4 147)">
<title>async/include/bulk.h</title>
<!-- Node6 -->
<g id="node1" class="node">
<title>Node6</title>
<polygon fill="#bfbfbf" stroke="#000000" points="132,-123.5 132,-142.5 248,-142.5 248,-123.5 132,-123.5"/>
<text text-anchor="middle" x="190" y="-130.5" font-family="Helvetica,sans-Serif" font-size="10.00" fill="#000000">async/include/bulk.h</text>
</g>
<!-- Node7 -->
<g id="node2" class="node">
<title>Node7</title>
<g id="a_node2"><a xlink:href="bulk__proc_8h_source.html" target="_top" xlink:title="async/include/bulk\l_proc.h">
<polygon fill="none" stroke="#000000" points="74.5,-56.5 74.5,-86.5 181.5,-86.5 181.5,-56.5 74.5,-56.5"/>
<text text-anchor="start" x="82.5" y="-74.5" font-family="Helvetica,sans-Serif" font-size="10.00" fill="#000000">async/include/bulk</text>
<text text-anchor="middle" x="128" y="-63.5" font-family="Helvetica,sans-Serif" font-size="10.00" fill="#000000">_proc.h</text>
</a>
</g>
</g>
<!-- Node6&#45;&gt;Node7 -->
<g id="edge1" class="edge">
<title>Node6&#45;&gt;Node7</title>
<path fill="none" stroke="#191970" d="M173.0736,-116.2101C163.7284,-106.9403 152.2171,-95.5218 143.1669,-86.5446"/>
<polygon fill="#191970" stroke="#191970" points="170.748,-118.8331 180.3125,-123.3906 175.6777,-113.8633 170.748,-118.8331"/>
</g>
<!-- Node10 -->
<g id="node5" class="node">
<title>Node10</title>
<polygon fill="none" stroke="#bfbfbf" points="199.5,-62 199.5,-81 306.5,-81 306.5,-62 199.5,-62"/>
<text text-anchor="middle" x="253" y="-69" font-family="Helvetica,sans-Serif" font-size="10.00" fill="#000000">async/src/bulk.cpp</text>
</g>
<!-- Node6&#45;&gt;Node10 -->
<g id="edge4" class="edge">
<title>Node6&#45;&gt;Node10</title>
<path fill="none" stroke="#191970" d="M207.1838,-116.2253C218.68,-105.0028 233.4077,-90.6258 243.0175,-81.2449"/>
<polygon fill="#191970" stroke="#191970" points="204.5546,-113.9007 199.8438,-123.3906 209.4444,-118.9097 204.5546,-113.9007"/>
</g>
<!-- Node8 -->
<g id="node3" class="node">
<title>Node8</title>
<g id="a_node3"><a xlink:href="async_8cpp.html" target="_top" xlink:title="async library implementation ">
<polygon fill="none" stroke="#000000" points="0,-.5 0,-19.5 114,-19.5 114,-.5 0,-.5"/>
<text text-anchor="middle" x="57" y="-7.5" font-family="Helvetica,sans-Serif" font-size="10.00" fill="#000000">async/src/async.cpp</text>
</a>
</g>
</g>
<!-- Node7&#45;&gt;Node8 -->
<g id="edge2" class="edge">
<title>Node7&#45;&gt;Node8</title>
<path fill="none" stroke="#191970" d="M102.6587,-49.5494C90.9308,-39.3907 77.5876,-27.8329 68.368,-19.8469"/>
<polygon fill="#191970" stroke="#191970" points="100.5992,-52.396 110.4494,-56.2977 105.1823,-47.1049 100.5992,-52.396"/>
</g>
<!-- Node9 -->
<g id="node4" class="node">
<title>Node9</title>
<polygon fill="none" stroke="#bfbfbf" points="132.5,-.5 132.5,-19.5 265.5,-19.5 265.5,-.5 132.5,-.5"/>
<text text-anchor="middle" x="199" y="-7.5" font-family="Helvetica,sans-Serif" font-size="10.00" fill="#000000">async/src/bulk_proc.cpp</text>
</g>
<!-- Node7&#45;&gt;Node9 -->
<g id="edge3" class="edge">
<title>Node7&#45;&gt;Node9</title>
<path fill="none" stroke="#191970" d="M153.3413,-49.5494C165.0692,-39.3907 178.4124,-27.8329 187.632,-19.8469"/>
<polygon fill="#191970" stroke="#191970" points="150.8177,-47.1049 145.5506,-56.2977 155.4008,-52.396 150.8177,-47.1049"/>
</g>
</g>
</svg>
