<?xml version="1.0" encoding="UTF-8" standalone="no"?>
<!DOCTYPE svg PUBLIC "-//W3C//DTD SVG 1.1//EN"
 "http://www.w3.org/Graphics/SVG/1.1/DTD/svg11.dtd">
<!-- Generated by graphviz version 2.40.1 (20161225.0304)
 -->
<!-- Title: async/include/bulk.h Pages: 1 -->
<svg width="338pt" height="84pt"
 viewBox="0.00 0.00 337.50 84.00" xmlns="http://www.w3.org/2000/svg" xmlns:xlink="http://www.w3.org/1999/xlink">
<g id="graph0" class="graph" transform="scale(1 1) rotate(0) translate(4 80)">
<title>async/include/bulk.h</title>
<!-- Node0 -->
<g id="node1" class="node">
<title>Node0</title>
<polygon fill="#bfbfbf" stroke="#000000" points="98.5,-56.5 98.5,-75.5 214.5,-75.5 214.5,-56.5 98.5,-56.5"/>
<text text-anchor="middle" x="156.5" y="-63.5" font-family="Helvetica,sans-Serif" font-size="10.00" fill="#000000">async/include/bulk.h</text>
</g>
<!-- Node1 -->
<g id="node2" class="node">
<title>Node1</title>
<polygon fill="none" stroke="#bfbfbf" points="0,-.5 0,-19.5 47,-19.5 47,-.5 0,-.5"/>
<text text-anchor="middle" x="23.5" y="-7.5" font-family="Helvetica,sans-Serif" font-size="10.00" fill="#000000">vector</text>
</g>
<!-- Node0&#45;&gt;Node1 -->
<g id="edge1" class="edge">
<title>Node0&#45;&gt;Node1</title>
<path fill="none" stroke="#191970" d="M133.6365,-56.3733C112.095,-47.3032 79.6162,-33.6279 55.5044,-23.4755"/>
<polygon fill="#191970" stroke="#191970" points="56.6397,-20.156 46.0652,-19.5011 53.9233,-26.6075 56.6397,-20.156"/>
</g>
<!-- Node2 -->
<g id="node3" class="node">
<title>Node2</title>
<polygon fill="none" stroke="#bfbfbf" points="65.5,-.5 65.5,-19.5 109.5,-19.5 109.5,-.5 65.5,-.5"/>
<text text-anchor="middle" x="87.5" y="-7.5" font-family="Helvetica,sans-Serif" font-size="10.00" fill="#000000">string</text>
</g>
<!-- Node0&#45;&gt;Node2 -->
<g id="edge2" class="edge">
<title>Node0&#45;&gt;Node2</title>
<path fill="none" stroke="#191970" d="M144.4811,-56.2455C134.2902,-47.9746 119.4638,-35.9416 107.4893,-26.2232"/>
<polygon fill="#191970" stroke="#191970" points="109.3514,-23.2268 99.3812,-19.6427 104.9402,-28.662 109.3514,-23.2268"/>
</g>
<!-- Node3 -->
<g id="node4" class="node">
<title>Node3</title>
<polygon fill="none" stroke="#bfbfbf" points="127.5,-.5 127.5,-19.5 185.5,-19.5 185.5,-.5 127.5,-.5"/>
<text text-anchor="middle" x="156.5" y="-7.5" font-family="Helvetica,sans-Serif" font-size="10.00" fill="#000000">memory</text>
</g>
<!-- Node0&#45;&gt;Node3 -->
<g id="edge3" class="edge">
<title>Node0&#45;&gt;Node3</title>
<path fill="none" stroke="#191970" d="M156.5,-56.2455C156.5,-48.9382 156.5,-38.6944 156.5,-29.7046"/>
<polygon fill="#191970" stroke="#191970" points="160.0001,-29.6426 156.5,-19.6427 153.0001,-29.6427 160.0001,-29.6426"/>
</g>
<!-- Node4 -->
<g id="node5" class="node">
<title>Node4</title>
<polygon fill="none" stroke="#bfbfbf" points="204,-.5 204,-19.5 261,-19.5 261,-.5 204,-.5"/>
<text text-anchor="middle" x="232.5" y="-7.5" font-family="Helvetica,sans-Serif" font-size="10.00" fill="#000000">ostream</text>
</g>
<!-- Node0&#45;&gt;Node4 -->
<g id="edge4" class="edge">
<title>Node0&#45;&gt;Node4</title>
<path fill="none" stroke="#191970" d="M169.7382,-56.2455C181.181,-47.814 197.9296,-35.4729 211.2475,-25.6598"/>
<polygon fill="#191970" stroke="#191970" points="213.4391,-28.3924 219.4135,-19.6427 209.2867,-22.757 213.4391,-28.3924"/>
</g>
<!-- Node5 -->
<g id="node6" class="node">
<title>Node5</title>
<polygon fill="none" stroke="#bfbfbf" points="279.5,-.5 279.5,-19.5 329.5,-19.5 329.5,-.5 279.5,-.5"/>
<text text-anchor="middle" x="304.5" y="-7.5" font-family="Helvetica,sans-Serif" font-size="10.00" fill="#000000">chrono</text>
</g>
<!-- Node0&#45;&gt;Node5 -->
<g id="edge5" class="edge">
<title>Node0&#45;&gt;Node5</title>
<path fill="none" stroke="#191970" d="M181.9421,-56.3733C206.2326,-47.1822 243.0208,-33.2624 269.9543,-23.0713"/>
<polygon fill="#191970" stroke="#191970" points="271.2757,-26.3136 279.3899,-19.5011 268.7984,-19.7666 271.2757,-26.3136"/>
</g>
</g>
</svg>
