<?xml version="1.0" encoding="UTF-8" standalone="no"?>
<!DOCTYPE svg PUBLIC "-//W3C//DTD SVG 1.1//EN"
 "http://www.w3.org/Graphics/SVG/1.1/DTD/svg11.dtd">
<!-- Generated by graphviz version 2.40.1 (20161225.0304)
 -->
<!-- Title: Generator Pages: 1 -->
<svg width="300pt" height="204pt"
 viewBox="0.00 0.00 299.50 204.00" xmlns="http://www.w3.org/2000/svg" xmlns:xlink="http://www.w3.org/1999/xlink">
<g id="graph0" class="graph" transform="scale(1 1) rotate(0) translate(4 200)">
<title>Generator</title>
<!-- Node0 -->
<g id="node1" class="node">
<title>Node0</title>
<polygon fill="#bfbfbf" stroke="#000000" points="95.5,-105.5 95.5,-195.5 179.5,-195.5 179.5,-105.5 95.5,-105.5"/>
<text text-anchor="middle" x="137.5" y="-183.5" font-family="Helvetica,sans-Serif" font-size="10.00" fill="#000000">Generator</text>
<polyline fill="none" stroke="#000000" points="95.5,-176.5 179.5,-176.5 "/>
<text text-anchor="middle" x="137.5" y="-164.5" font-family="Helvetica,sans-Serif" font-size="10.00" fill="#000000"> </text>
<polyline fill="none" stroke="#000000" points="95.5,-157.5 179.5,-157.5 "/>
<text text-anchor="start" x="103.5" y="-145.5" font-family="Helvetica,sans-Serif" font-size="10.00" fill="#000000">+ Generator()</text>
<text text-anchor="start" x="103.5" y="-134.5" font-family="Helvetica,sans-Serif" font-size="10.00" fill="#000000">+ begin()</text>
<text text-anchor="start" x="103.5" y="-123.5" font-family="Helvetica,sans-Serif" font-size="10.00" fill="#000000">+ end()</text>
<text text-anchor="start" x="103.5" y="-112.5" font-family="Helvetica,sans-Serif" font-size="10.00" fill="#000000">+ get()</text>
</g>
<!-- Node1 -->
<g id="node2" class="node">
<title>Node1</title>
<g id="a_node2"><a xlink:href="classIterGenerator.html" target="_top" xlink:title="Generator for any iterated data. ">
<polygon fill="none" stroke="#000000" points="0,-.5 0,-68.5 121,-68.5 121,-.5 0,-.5"/>
<text text-anchor="middle" x="60.5" y="-56.5" font-family="Helvetica,sans-Serif" font-size="10.00" fill="#000000">IterGenerator&lt; Iter &gt;</text>
<polyline fill="none" stroke="#000000" points="0,-49.5 121,-49.5 "/>
<text text-anchor="middle" x="60.5" y="-37.5" font-family="Helvetica,sans-Serif" font-size="10.00" fill="#000000"> </text>
<polyline fill="none" stroke="#000000" points="0,-30.5 121,-30.5 "/>
<text text-anchor="start" x="8" y="-18.5" font-family="Helvetica,sans-Serif" font-size="10.00" fill="#000000">+ IterGenerator()</text>
<text text-anchor="start" x="8" y="-7.5" font-family="Helvetica,sans-Serif" font-size="10.00" fill="#000000">+ get()</text>
</a>
</g>
</g>
<!-- Node0&#45;&gt;Node1 -->
<g id="edge1" class="edge">
<title>Node0&#45;&gt;Node1</title>
<path fill="none" stroke="#191970" d="M101.9349,-96.9215C95.5395,-87.2868 89.0354,-77.4885 83.1342,-68.5982"/>
<polygon fill="none" stroke="#191970" points="99.0628,-98.9233 107.5093,-105.3192 104.8949,-95.052 99.0628,-98.9233"/>
</g>
<!-- Node2 -->
<g id="node3" class="node">
<title>Node2</title>
<g id="a_node3"><a xlink:href="classRandomBraceGenerator.html" target="_top" xlink:title="Generator for random commands with braces Generated string template is {prefix}{index}, where index = 1,2,3...len or &quot;{&quot; or &quot;}&quot;. ">
<polygon fill="none" stroke="#000000" points="139.5,-.5 139.5,-68.5 291.5,-68.5 291.5,-.5 139.5,-.5"/>
<text text-anchor="middle" x="215.5" y="-56.5" font-family="Helvetica,sans-Serif" font-size="10.00" fill="#000000">RandomBraceGenerator</text>
<polyline fill="none" stroke="#000000" points="139.5,-49.5 291.5,-49.5 "/>
<text text-anchor="middle" x="215.5" y="-37.5" font-family="Helvetica,sans-Serif" font-size="10.00" fill="#000000"> </text>
<polyline fill="none" stroke="#000000" points="139.5,-30.5 291.5,-30.5 "/>
<text text-anchor="start" x="147.5" y="-18.5" font-family="Helvetica,sans-Serif" font-size="10.00" fill="#000000">+ RandomBraceGenerator()</text>
<text text-anchor="start" x="147.5" y="-7.5" font-family="Helvetica,sans-Serif" font-size="10.00" fill="#000000">+ get()</text>
</a>
</g>
</g>
<!-- Node0&#45;&gt;Node2 -->
<g id="edge2" class="edge">
<title>Node0&#45;&gt;Node2</title>
<path fill="none" stroke="#191970" d="M173.527,-96.9215C180.0054,-87.2868 186.594,-77.4885 192.5719,-68.5982"/>
<polygon fill="none" stroke="#191970" points="170.5557,-95.0678 167.8802,-105.3192 176.3647,-98.9738 170.5557,-95.0678"/>
</g>
</g>
</svg>
