<?xml version="1.0" encoding="UTF-8" standalone="no"?>
<!DOCTYPE svg PUBLIC "-//W3C//DTD SVG 1.1//EN"
 "http://www.w3.org/Graphics/SVG/1.1/DTD/svg11.dtd">
<!-- Generated by graphviz version 2.40.1 (20161225.0304)
 -->
<!-- Title: async::StaticBulk Pages: 1 -->
<svg width="437pt" height="354pt"
 viewBox="0.00 0.00 436.50 354.00" xmlns="http://www.w3.org/2000/svg" xmlns:xlink="http://www.w3.org/1999/xlink">
<g id="graph0" class="graph" transform="scale(1 1) rotate(0) translate(4 350)">
<title>async::StaticBulk</title>
<!-- Node2 -->
<g id="node1" class="node">
<title>Node2</title>
<polygon fill="#bfbfbf" stroke="#000000" points="140,-.5 140,-79.5 247,-79.5 247,-.5 140,-.5"/>
<text text-anchor="middle" x="193.5" y="-67.5" font-family="Helvetica,sans-Serif" font-size="10.00" fill="#000000">async::StaticBulk</text>
<polyline fill="none" stroke="#000000" points="140,-60.5 247,-60.5 "/>
<text text-anchor="middle" x="193.5" y="-48.5" font-family="Helvetica,sans-Serif" font-size="10.00" fill="#000000"> </text>
<polyline fill="none" stroke="#000000" points="140,-41.5 247,-41.5 "/>
<text text-anchor="start" x="148" y="-29.5" font-family="Helvetica,sans-Serif" font-size="10.00" fill="#000000">+ StaticBulk()</text>
<text text-anchor="start" x="148" y="-18.5" font-family="Helvetica,sans-Serif" font-size="10.00" fill="#000000">+ add_command()</text>
<text text-anchor="start" x="148" y="-7.5" font-family="Helvetica,sans-Serif" font-size="10.00" fill="#000000">+ processible()</text>
</g>
<!-- Node3 -->
<g id="node2" class="node">
<title>Node3</title>
<g id="a_node2"><a xlink:href="classasync_1_1Bulk.html" target="_top" xlink:title="{async::Bulk\n||+ Bulk()\l+ ~Bulk()\l+ add_command()\l+ processible()\l+ start_time()\l+ output()\l}">
<polygon fill="none" stroke="#000000" points="140,-117.5 140,-229.5 247,-229.5 247,-117.5 140,-117.5"/>
<text text-anchor="middle" x="193.5" y="-217.5" font-family="Helvetica,sans-Serif" font-size="10.00" fill="#000000">async::Bulk</text>
<polyline fill="none" stroke="#000000" points="140,-210.5 247,-210.5 "/>
<text text-anchor="middle" x="193.5" y="-198.5" font-family="Helvetica,sans-Serif" font-size="10.00" fill="#000000"> </text>
<polyline fill="none" stroke="#000000" points="140,-191.5 247,-191.5 "/>
<text text-anchor="start" x="148" y="-179.5" font-family="Helvetica,sans-Serif" font-size="10.00" fill="#000000">+ Bulk()</text>
<text text-anchor="start" x="148" y="-168.5" font-family="Helvetica,sans-Serif" font-size="10.00" fill="#000000">+ ~Bulk()</text>
<text text-anchor="start" x="148" y="-157.5" font-family="Helvetica,sans-Serif" font-size="10.00" fill="#000000">+ add_command()</text>
<text text-anchor="start" x="148" y="-146.5" font-family="Helvetica,sans-Serif" font-size="10.00" fill="#000000">+ processible()</text>
<text text-anchor="start" x="148" y="-135.5" font-family="Helvetica,sans-Serif" font-size="10.00" fill="#000000">+ start_time()</text>
<text text-anchor="start" x="148" y="-124.5" font-family="Helvetica,sans-Serif" font-size="10.00" fill="#000000">+ output()</text>
</a>
</g>
</g>
<!-- Node3&#45;&gt;Node2 -->
<g id="edge1" class="edge">
<title>Node3&#45;&gt;Node2</title>
<path fill="none" stroke="#191970" d="M193.5,-107.0887C193.5,-97.6692 193.5,-88.2406 193.5,-79.5534"/>
<polygon fill="none" stroke="#191970" points="190.0001,-107.2709 193.5,-117.2709 197.0001,-107.2709 190.0001,-107.2709"/>
</g>
<!-- Node4 -->
<g id="node3" class="node">
<title>Node4</title>
<polygon fill="none" stroke="#bfbfbf" points="0,-288.5 0,-345.5 69,-345.5 69,-288.5 0,-288.5"/>
<text text-anchor="middle" x="34.5" y="-333.5" font-family="Helvetica,sans-Serif" font-size="10.00" fill="#000000">time_point</text>
<polyline fill="none" stroke="#bfbfbf" points="0,-326.5 69,-326.5 "/>
<text text-anchor="middle" x="34.5" y="-314.5" font-family="Helvetica,sans-Serif" font-size="10.00" fill="#000000"> </text>
<polyline fill="none" stroke="#bfbfbf" points="0,-307.5 69,-307.5 "/>
<text text-anchor="middle" x="34.5" y="-295.5" font-family="Helvetica,sans-Serif" font-size="10.00" fill="#000000"> </text>
</g>
<!-- Node4&#45;&gt;Node3 -->
<g id="edge2" class="edge">
<title>Node4&#45;&gt;Node3</title>
<path fill="none" stroke="#404040" d="M65.4004,-288.3376C78.8905,-275.8853 94.9263,-261.1646 109.5,-248 116.3143,-241.8445 123.4652,-235.4317 130.5981,-229.0646"/>
<polygon fill="none" stroke="#404040" points="130.6371,-229.0299 132.456,-222.0519 139.5967,-221.047 137.7779,-228.025 130.6371,-229.0299"/>
<text text-anchor="middle" x="126.5" y="-256.5" font-family="Helvetica,sans-Serif" font-size="10.00" fill="#000000"> #start</text>
</g>
<!-- Node5 -->
<g id="node4" class="node">
<title>Node5</title>
<polygon fill="none" stroke="#bfbfbf" points="87,-288.5 87,-345.5 206,-345.5 206,-288.5 87,-288.5"/>
<text text-anchor="middle" x="146.5" y="-333.5" font-family="Helvetica,sans-Serif" font-size="10.00" fill="#000000">vector&lt; std::string &gt;</text>
<polyline fill="none" stroke="#bfbfbf" points="87,-326.5 206,-326.5 "/>
<text text-anchor="middle" x="146.5" y="-314.5" font-family="Helvetica,sans-Serif" font-size="10.00" fill="#000000"> </text>
<polyline fill="none" stroke="#bfbfbf" points="87,-307.5 206,-307.5 "/>
<text text-anchor="middle" x="146.5" y="-295.5" font-family="Helvetica,sans-Serif" font-size="10.00" fill="#000000"> </text>
</g>
<!-- Node5&#45;&gt;Node3 -->
<g id="edge3" class="edge">
<title>Node5&#45;&gt;Node3</title>
<path fill="none" stroke="#404040" d="M146.3439,-288.2964C146.9478,-275.7036 148.5856,-260.8859 152.5,-248 153.1919,-245.7222 153.9594,-243.4358 154.7901,-241.1508"/>
<polygon fill="none" stroke="#404040" points="154.8917,-240.9008 153.4477,-233.8358 159.4138,-229.7854 160.8579,-236.8505 154.8917,-240.9008"/>
<text text-anchor="middle" x="185.5" y="-256.5" font-family="Helvetica,sans-Serif" font-size="10.00" fill="#000000"> #commands</text>
</g>
<!-- Node6 -->
<g id="node5" class="node">
<title>Node6</title>
<polygon fill="none" stroke="#bfbfbf" points="224,-288.5 224,-345.5 269,-345.5 269,-288.5 224,-288.5"/>
<text text-anchor="middle" x="246.5" y="-333.5" font-family="Helvetica,sans-Serif" font-size="10.00" fill="#000000">size_t</text>
<polyline fill="none" stroke="#bfbfbf" points="224,-326.5 269,-326.5 "/>
<text text-anchor="middle" x="246.5" y="-314.5" font-family="Helvetica,sans-Serif" font-size="10.00" fill="#000000"> </text>
<polyline fill="none" stroke="#bfbfbf" points="224,-307.5 269,-307.5 "/>
<text text-anchor="middle" x="246.5" y="-295.5" font-family="Helvetica,sans-Serif" font-size="10.00" fill="#000000"> </text>
</g>
<!-- Node6&#45;&gt;Node3 -->
<g id="edge4" class="edge">
<title>Node6&#45;&gt;Node3</title>
<path fill="none" stroke="#404040" d="M235.902,-288.3055C230.8704,-274.6822 224.6251,-257.7727 218.4882,-241.1568"/>
<polygon fill="none" stroke="#404040" points="218.4308,-241.0012 212.5998,-236.7587 214.2732,-229.7445 220.1043,-233.987 218.4308,-241.0012"/>
<text text-anchor="middle" x="274" y="-256.5" font-family="Helvetica,sans-Serif" font-size="10.00" fill="#000000"> #max_commands</text>
</g>
<!-- Node7 -->
<g id="node6" class="node">
<title>Node7</title>
<polygon fill="none" stroke="#bfbfbf" points="334.5,-288.5 334.5,-345.5 378.5,-345.5 378.5,-288.5 334.5,-288.5"/>
<text text-anchor="middle" x="356.5" y="-333.5" font-family="Helvetica,sans-Serif" font-size="10.00" fill="#000000">string</text>
<polyline fill="none" stroke="#bfbfbf" points="334.5,-326.5 378.5,-326.5 "/>
<text text-anchor="middle" x="356.5" y="-314.5" font-family="Helvetica,sans-Serif" font-size="10.00" fill="#000000"> </text>
<polyline fill="none" stroke="#bfbfbf" points="334.5,-307.5 378.5,-307.5 "/>
<text text-anchor="middle" x="356.5" y="-295.5" font-family="Helvetica,sans-Serif" font-size="10.00" fill="#000000"> </text>
</g>
<!-- Node7&#45;&gt;Node3 -->
<g id="edge5" class="edge">
<title>Node7&#45;&gt;Node3</title>
<path fill="none" stroke="#404040" d="M347.8278,-288.4597C342.6753,-275.0203 335.0521,-259.4646 324.5,-248 306.1447,-228.0575 281.1933,-212.0554 257.9899,-200.0703"/>
<polygon fill="none" stroke="#404040" points="257.8785,-200.0151 250.7256,-200.9296 247.1304,-194.6786 254.2833,-193.7641 257.8785,-200.0151"/>
<text text-anchor="middle" x="383.5" y="-262" font-family="Helvetica,sans-Serif" font-size="10.00" fill="#000000"> #cmd_bulk_close</text>
<text text-anchor="middle" x="383.5" y="-251" font-family="Helvetica,sans-Serif" font-size="10.00" fill="#000000">#cmd_bulk_open</text>
</g>
</g>
</svg>
