<?xml version="1.0" encoding="UTF-8" standalone="no"?>
<!DOCTYPE svg PUBLIC "-//W3C//DTD SVG 1.1//EN"
 "http://www.w3.org/Graphics/SVG/1.1/DTD/svg11.dtd">
<!-- Generated by graphviz version 2.40.1 (20161225.0304)
 -->
<!-- Title: async::Bulk Pages: 1 -->
<svg width="437pt" height="237pt"
 viewBox="0.00 0.00 436.50 237.00" xmlns="http://www.w3.org/2000/svg" xmlns:xlink="http://www.w3.org/1999/xlink">
<g id="graph0" class="graph" transform="scale(1 1) rotate(0) translate(4 233)">
<title>async::Bulk</title>
<!-- Node3 -->
<g id="node1" class="node">
<title>Node3</title>
<polygon fill="#bfbfbf" stroke="#000000" points="143,-.5 143,-112.5 244,-112.5 244,-.5 143,-.5"/>
<text text-anchor="middle" x="193.5" y="-100.5" font-family="Helvetica,sans-Serif" font-size="10.00" fill="#000000">async::Bulk</text>
<polyline fill="none" stroke="#000000" points="143,-93.5 244,-93.5 "/>
<text text-anchor="middle" x="193.5" y="-81.5" font-family="Helvetica,sans-Serif" font-size="10.00" fill="#000000"> </text>
<polyline fill="none" stroke="#000000" points="143,-74.5 244,-74.5 "/>
<text text-anchor="start" x="151" y="-62.5" font-family="Helvetica,sans-Serif" font-size="10.00" fill="#000000">+ Bulk()</text>
<text text-anchor="start" x="151" y="-51.5" font-family="Helvetica,sans-Serif" font-size="10.00" fill="#000000">+ ~Bulk()</text>
<text text-anchor="start" x="151" y="-40.5" font-family="Helvetica,sans-Serif" font-size="10.00" fill="#000000">+ add_commad()</text>
<text text-anchor="start" x="151" y="-29.5" font-family="Helvetica,sans-Serif" font-size="10.00" fill="#000000">+ is_valid()</text>
<text text-anchor="start" x="151" y="-18.5" font-family="Helvetica,sans-Serif" font-size="10.00" fill="#000000">+ start_time()</text>
<text text-anchor="start" x="151" y="-7.5" font-family="Helvetica,sans-Serif" font-size="10.00" fill="#000000">+ output()</text>
</g>
<!-- Node4 -->
<g id="node2" class="node">
<title>Node4</title>
<polygon fill="none" stroke="#bfbfbf" points="0,-171.5 0,-228.5 69,-228.5 69,-171.5 0,-171.5"/>
<text text-anchor="middle" x="34.5" y="-216.5" font-family="Helvetica,sans-Serif" font-size="10.00" fill="#000000">time_point</text>
<polyline fill="none" stroke="#bfbfbf" points="0,-209.5 69,-209.5 "/>
<text text-anchor="middle" x="34.5" y="-197.5" font-family="Helvetica,sans-Serif" font-size="10.00" fill="#000000"> </text>
<polyline fill="none" stroke="#bfbfbf" points="0,-190.5 69,-190.5 "/>
<text text-anchor="middle" x="34.5" y="-178.5" font-family="Helvetica,sans-Serif" font-size="10.00" fill="#000000"> </text>
</g>
<!-- Node4&#45;&gt;Node3 -->
<g id="edge1" class="edge">
<title>Node4&#45;&gt;Node3</title>
<path fill="none" stroke="#404040" d="M65.4004,-171.3376C78.8905,-158.8853 94.9263,-144.1646 109.5,-131 117.2771,-123.9748 125.4927,-116.6143 133.6195,-109.3693"/>
<polygon fill="none" stroke="#404040" points="133.7647,-109.2401 135.5877,-102.2632 142.7291,-101.2626 140.9061,-108.2395 133.7647,-109.2401"/>
<text text-anchor="middle" x="126.5" y="-139.5" font-family="Helvetica,sans-Serif" font-size="10.00" fill="#000000"> #start</text>
</g>
<!-- Node5 -->
<g id="node3" class="node">
<title>Node5</title>
<polygon fill="none" stroke="#bfbfbf" points="87,-171.5 87,-228.5 206,-228.5 206,-171.5 87,-171.5"/>
<text text-anchor="middle" x="146.5" y="-216.5" font-family="Helvetica,sans-Serif" font-size="10.00" fill="#000000">vector&lt; std::string &gt;</text>
<polyline fill="none" stroke="#bfbfbf" points="87,-209.5 206,-209.5 "/>
<text text-anchor="middle" x="146.5" y="-197.5" font-family="Helvetica,sans-Serif" font-size="10.00" fill="#000000"> </text>
<polyline fill="none" stroke="#bfbfbf" points="87,-190.5 206,-190.5 "/>
<text text-anchor="middle" x="146.5" y="-178.5" font-family="Helvetica,sans-Serif" font-size="10.00" fill="#000000"> </text>
</g>
<!-- Node5&#45;&gt;Node3 -->
<g id="edge2" class="edge">
<title>Node5&#45;&gt;Node3</title>
<path fill="none" stroke="#404040" d="M146.3439,-171.2964C146.9478,-158.7036 148.5856,-143.8859 152.5,-131 153.1919,-128.7222 153.9594,-126.4358 154.7901,-124.1508"/>
<polygon fill="none" stroke="#404040" points="154.8917,-123.9008 153.4477,-116.8358 159.4138,-112.7854 160.8579,-119.8505 154.8917,-123.9008"/>
<text text-anchor="middle" x="185.5" y="-139.5" font-family="Helvetica,sans-Serif" font-size="10.00" fill="#000000"> #commands</text>
</g>
<!-- Node6 -->
<g id="node4" class="node">
<title>Node6</title>
<polygon fill="none" stroke="#bfbfbf" points="224,-171.5 224,-228.5 269,-228.5 269,-171.5 224,-171.5"/>
<text text-anchor="middle" x="246.5" y="-216.5" font-family="Helvetica,sans-Serif" font-size="10.00" fill="#000000">size_t</text>
<polyline fill="none" stroke="#bfbfbf" points="224,-209.5 269,-209.5 "/>
<text text-anchor="middle" x="246.5" y="-197.5" font-family="Helvetica,sans-Serif" font-size="10.00" fill="#000000"> </text>
<polyline fill="none" stroke="#bfbfbf" points="224,-190.5 269,-190.5 "/>
<text text-anchor="middle" x="246.5" y="-178.5" font-family="Helvetica,sans-Serif" font-size="10.00" fill="#000000"> </text>
</g>
<!-- Node6&#45;&gt;Node3 -->
<g id="edge3" class="edge">
<title>Node6&#45;&gt;Node3</title>
<path fill="none" stroke="#404040" d="M235.902,-171.3055C230.8704,-157.6822 224.6251,-140.7727 218.4882,-124.1568"/>
<polygon fill="none" stroke="#404040" points="218.4308,-124.0012 212.5998,-119.7587 214.2732,-112.7445 220.1043,-116.987 218.4308,-124.0012"/>
<text text-anchor="middle" x="274" y="-139.5" font-family="Helvetica,sans-Serif" font-size="10.00" fill="#000000"> #max_commands</text>
</g>
<!-- Node7 -->
<g id="node5" class="node">
<title>Node7</title>
<polygon fill="none" stroke="#bfbfbf" points="334.5,-171.5 334.5,-228.5 378.5,-228.5 378.5,-171.5 334.5,-171.5"/>
<text text-anchor="middle" x="356.5" y="-216.5" font-family="Helvetica,sans-Serif" font-size="10.00" fill="#000000">string</text>
<polyline fill="none" stroke="#bfbfbf" points="334.5,-209.5 378.5,-209.5 "/>
<text text-anchor="middle" x="356.5" y="-197.5" font-family="Helvetica,sans-Serif" font-size="10.00" fill="#000000"> </text>
<polyline fill="none" stroke="#bfbfbf" points="334.5,-190.5 378.5,-190.5 "/>
<text text-anchor="middle" x="356.5" y="-178.5" font-family="Helvetica,sans-Serif" font-size="10.00" fill="#000000"> </text>
</g>
<!-- Node7&#45;&gt;Node3 -->
<g id="edge4" class="edge">
<title>Node7&#45;&gt;Node3</title>
<path fill="none" stroke="#404040" d="M347.8278,-171.4597C342.6753,-158.0203 335.0521,-142.4646 324.5,-131 305.3702,-110.216 279.076,-93.712 255.0627,-81.5747"/>
<polygon fill="none" stroke="#404040" points="255.0164,-81.5522 247.8714,-82.5263 244.224,-76.3056 251.3691,-75.3315 255.0164,-81.5522"/>
<text text-anchor="middle" x="383.5" y="-145" font-family="Helvetica,sans-Serif" font-size="10.00" fill="#000000"> #cmd_bulk_close</text>
<text text-anchor="middle" x="383.5" y="-134" font-family="Helvetica,sans-Serif" font-size="10.00" fill="#000000">#cmd_bulk_open</text>
</g>
</g>
</svg>
