<?xml version="1.0" encoding="UTF-8" standalone="no"?>
<!DOCTYPE svg PUBLIC "-//W3C//DTD SVG 1.1//EN"
 "http://www.w3.org/Graphics/SVG/1.1/DTD/svg11.dtd">
<!-- Generated by graphviz version 2.40.1 (20161225.0304)
 -->
<!-- Title: RandomBraceGenerator Pages: 1 -->
<svg width="160pt" height="343pt"
 viewBox="0.00 0.00 160.00 343.00" xmlns="http://www.w3.org/2000/svg" xmlns:xlink="http://www.w3.org/1999/xlink">
<g id="graph0" class="graph" transform="scale(1 1) rotate(0) translate(4 339)">
<title>RandomBraceGenerator</title>
<!-- Node3 -->
<g id="node1" class="node">
<title>Node3</title>
<polygon fill="#bfbfbf" stroke="#000000" points="0,-.5 0,-68.5 152,-68.5 152,-.5 0,-.5"/>
<text text-anchor="middle" x="76" y="-56.5" font-family="Helvetica,sans-Serif" font-size="10.00" fill="#000000">RandomBraceGenerator</text>
<polyline fill="none" stroke="#000000" points="0,-49.5 152,-49.5 "/>
<text text-anchor="middle" x="76" y="-37.5" font-family="Helvetica,sans-Serif" font-size="10.00" fill="#000000"> </text>
<polyline fill="none" stroke="#000000" points="0,-30.5 152,-30.5 "/>
<text text-anchor="start" x="8" y="-18.5" font-family="Helvetica,sans-Serif" font-size="10.00" fill="#000000">+ RandomBraceGenerator()</text>
<text text-anchor="start" x="8" y="-7.5" font-family="Helvetica,sans-Serif" font-size="10.00" fill="#000000">+ get()</text>
</g>
<!-- Node4 -->
<g id="node2" class="node">
<title>Node4</title>
<g id="a_node2"><a xlink:href="classGenerator.html" target="_top" xlink:title="{Generator\&lt; std::string \&gt;\n||+ Generator()\l+ begin()\l+ end()\l+ get()\l}">
<polygon fill="none" stroke="#000000" points="7.5,-106.5 7.5,-196.5 144.5,-196.5 144.5,-106.5 7.5,-106.5"/>
<text text-anchor="middle" x="76" y="-184.5" font-family="Helvetica,sans-Serif" font-size="10.00" fill="#000000">Generator&lt; std::string &gt;</text>
<polyline fill="none" stroke="#000000" points="7.5,-177.5 144.5,-177.5 "/>
<text text-anchor="middle" x="76" y="-165.5" font-family="Helvetica,sans-Serif" font-size="10.00" fill="#000000"> </text>
<polyline fill="none" stroke="#000000" points="7.5,-158.5 144.5,-158.5 "/>
<text text-anchor="start" x="15.5" y="-146.5" font-family="Helvetica,sans-Serif" font-size="10.00" fill="#000000">+ Generator()</text>
<text text-anchor="start" x="15.5" y="-135.5" font-family="Helvetica,sans-Serif" font-size="10.00" fill="#000000">+ begin()</text>
<text text-anchor="start" x="15.5" y="-124.5" font-family="Helvetica,sans-Serif" font-size="10.00" fill="#000000">+ end()</text>
<text text-anchor="start" x="15.5" y="-113.5" font-family="Helvetica,sans-Serif" font-size="10.00" fill="#000000">+ get()</text>
</a>
</g>
</g>
<!-- Node4&#45;&gt;Node3 -->
<g id="edge1" class="edge">
<title>Node4&#45;&gt;Node3</title>
<path fill="none" stroke="#191970" d="M76,-96.1895C76,-86.8229 76,-77.3469 76,-68.7259"/>
<polygon fill="none" stroke="#191970" points="72.5001,-96.2647 76,-106.2647 79.5001,-96.2648 72.5001,-96.2647"/>
</g>
<!-- Node5 -->
<g id="node3" class="node">
<title>Node5</title>
<g id="a_node3"><a xlink:href="classGenerator.html" target="_top" xlink:title="data of type T Generator interface ">
<polygon fill="none" stroke="#000000" points="29,-244.5 29,-334.5 123,-334.5 123,-244.5 29,-244.5"/>
<text text-anchor="middle" x="76" y="-322.5" font-family="Helvetica,sans-Serif" font-size="10.00" fill="#000000">Generator&lt; T &gt;</text>
<polyline fill="none" stroke="#000000" points="29,-315.5 123,-315.5 "/>
<text text-anchor="middle" x="76" y="-303.5" font-family="Helvetica,sans-Serif" font-size="10.00" fill="#000000"> </text>
<polyline fill="none" stroke="#000000" points="29,-296.5 123,-296.5 "/>
<text text-anchor="start" x="37" y="-284.5" font-family="Helvetica,sans-Serif" font-size="10.00" fill="#000000">+ Generator()</text>
<text text-anchor="start" x="37" y="-273.5" font-family="Helvetica,sans-Serif" font-size="10.00" fill="#000000">+ begin()</text>
<text text-anchor="start" x="37" y="-262.5" font-family="Helvetica,sans-Serif" font-size="10.00" fill="#000000">+ end()</text>
<text text-anchor="start" x="37" y="-251.5" font-family="Helvetica,sans-Serif" font-size="10.00" fill="#000000">+ get()</text>
</a>
</g>
</g>
<!-- Node5&#45;&gt;Node4 -->
<g id="edge2" class="edge">
<title>Node5&#45;&gt;Node4</title>
<path fill="none" stroke="#ffa500" d="M76,-234.089C76,-221.7026 76,-208.7078 76,-196.7879"/>
<polygon fill="#ffa500" stroke="#ffa500" points="72.5001,-234.3136 76,-244.3136 79.5001,-234.3137 72.5001,-234.3136"/>
<text text-anchor="middle" x="113.5" y="-218" font-family="Helvetica,sans-Serif" font-size="10.00" fill="#000000"> &lt; std::string &gt;</text>
</g>
</g>
</svg>
