<?xml version="1.0" encoding="UTF-8" standalone="no"?>
<!DOCTYPE svg PUBLIC "-//W3C//DTD SVG 1.1//EN"
 "http://www.w3.org/Graphics/SVG/1.1/DTD/svg11.dtd">
<!-- Generated by graphviz version 2.40.1 (20161225.0304)
 -->
<!-- Title: IterGenerator&lt; Iter &gt; Pages: 1 -->
<svg width="174pt" height="354pt"
 viewBox="0.00 0.00 174.00 354.00" xmlns="http://www.w3.org/2000/svg" xmlns:xlink="http://www.w3.org/1999/xlink">
<g id="graph0" class="graph" transform="scale(1 1) rotate(0) translate(4 350)">
<title>IterGenerator&lt; Iter &gt;</title>
<!-- Node0 -->
<g id="node1" class="node">
<title>Node0</title>
<polygon fill="#bfbfbf" stroke="#000000" points="2.5,-.5 2.5,-68.5 123.5,-68.5 123.5,-.5 2.5,-.5"/>
<text text-anchor="middle" x="63" y="-56.5" font-family="Helvetica,sans-Serif" font-size="10.00" fill="#000000">IterGenerator&lt; Iter &gt;</text>
<polyline fill="none" stroke="#000000" points="2.5,-49.5 123.5,-49.5 "/>
<text text-anchor="middle" x="63" y="-37.5" font-family="Helvetica,sans-Serif" font-size="10.00" fill="#000000"> </text>
<polyline fill="none" stroke="#000000" points="2.5,-30.5 123.5,-30.5 "/>
<text text-anchor="start" x="10.5" y="-18.5" font-family="Helvetica,sans-Serif" font-size="10.00" fill="#000000">+ IterGenerator()</text>
<text text-anchor="start" x="10.5" y="-7.5" font-family="Helvetica,sans-Serif" font-size="10.00" fill="#000000">+ get()</text>
</g>
<!-- Node1 -->
<g id="node2" class="node">
<title>Node1</title>
<g id="a_node2"><a xlink:href="classGenerator.html" target="_top" xlink:title="{Generator\&lt; Iter::value\l_type \&gt;\n||+ Generator()\l+ begin()\l+ end()\l+ get()\l}">
<polygon fill="none" stroke="#000000" points="0,-106.5 0,-207.5 126,-207.5 126,-106.5 0,-106.5"/>
<text text-anchor="start" x="8" y="-195.5" font-family="Helvetica,sans-Serif" font-size="10.00" fill="#000000">Generator&lt; Iter::value</text>
<text text-anchor="middle" x="63" y="-184.5" font-family="Helvetica,sans-Serif" font-size="10.00" fill="#000000">_type &gt;</text>
<polyline fill="none" stroke="#000000" points="0,-177.5 126,-177.5 "/>
<text text-anchor="middle" x="63" y="-165.5" font-family="Helvetica,sans-Serif" font-size="10.00" fill="#000000"> </text>
<polyline fill="none" stroke="#000000" points="0,-158.5 126,-158.5 "/>
<text text-anchor="start" x="8" y="-146.5" font-family="Helvetica,sans-Serif" font-size="10.00" fill="#000000">+ Generator()</text>
<text text-anchor="start" x="8" y="-135.5" font-family="Helvetica,sans-Serif" font-size="10.00" fill="#000000">+ begin()</text>
<text text-anchor="start" x="8" y="-124.5" font-family="Helvetica,sans-Serif" font-size="10.00" fill="#000000">+ end()</text>
<text text-anchor="start" x="8" y="-113.5" font-family="Helvetica,sans-Serif" font-size="10.00" fill="#000000">+ get()</text>
</a>
</g>
</g>
<!-- Node1&#45;&gt;Node0 -->
<g id="edge1" class="edge">
<title>Node1&#45;&gt;Node0</title>
<path fill="none" stroke="#191970" d="M63,-96.186C63,-86.6659 63,-77.1318 63,-68.5036"/>
<polygon fill="none" stroke="#191970" points="59.5001,-96.4673 63,-106.4673 66.5001,-96.4674 59.5001,-96.4673"/>
</g>
<!-- Node2 -->
<g id="node3" class="node">
<title>Node2</title>
<g id="a_node3"><a xlink:href="classGenerator.html" target="_top" xlink:title="data of type T Generator interface ">
<polygon fill="none" stroke="#000000" points="16,-255.5 16,-345.5 110,-345.5 110,-255.5 16,-255.5"/>
<text text-anchor="middle" x="63" y="-333.5" font-family="Helvetica,sans-Serif" font-size="10.00" fill="#000000">Generator&lt; T &gt;</text>
<polyline fill="none" stroke="#000000" points="16,-326.5 110,-326.5 "/>
<text text-anchor="middle" x="63" y="-314.5" font-family="Helvetica,sans-Serif" font-size="10.00" fill="#000000"> </text>
<polyline fill="none" stroke="#000000" points="16,-307.5 110,-307.5 "/>
<text text-anchor="start" x="24" y="-295.5" font-family="Helvetica,sans-Serif" font-size="10.00" fill="#000000">+ Generator()</text>
<text text-anchor="start" x="24" y="-284.5" font-family="Helvetica,sans-Serif" font-size="10.00" fill="#000000">+ begin()</text>
<text text-anchor="start" x="24" y="-273.5" font-family="Helvetica,sans-Serif" font-size="10.00" fill="#000000">+ end()</text>
<text text-anchor="start" x="24" y="-262.5" font-family="Helvetica,sans-Serif" font-size="10.00" fill="#000000">+ get()</text>
</a>
</g>
</g>
<!-- Node2&#45;&gt;Node1 -->
<g id="edge2" class="edge">
<title>Node2&#45;&gt;Node1</title>
<path fill="none" stroke="#ffa500" d="M63,-245.2769C63,-232.8828 63,-219.7929 63,-207.5983"/>
<polygon fill="#ffa500" stroke="#ffa500" points="59.5001,-245.4894 63,-255.4894 66.5001,-245.4895 59.5001,-245.4894"/>
<text text-anchor="middle" x="114.5" y="-229" font-family="Helvetica,sans-Serif" font-size="10.00" fill="#000000"> &lt; Iter::value_type &gt;</text>
</g>
</g>
</svg>
