<?xml version="1.0" encoding="UTF-8" standalone="no"?>
<!DOCTYPE svg PUBLIC "-//W3C//DTD SVG 1.1//EN"
 "http://www.w3.org/Graphics/SVG/1.1/DTD/svg11.dtd">
<!-- Generated by graphviz version 2.40.1 (20161225.0304)
 -->
<!-- Title: async::StaticBulk Pages: 1 -->
<svg width="437pt" height="365pt"
 viewBox="0.00 0.00 436.50 365.00" xmlns="http://www.w3.org/2000/svg" xmlns:xlink="http://www.w3.org/1999/xlink">
<g id="graph0" class="graph" transform="scale(1 1) rotate(0) translate(4 361)">
<title>async::StaticBulk</title>
<!-- Node2 -->
<g id="node1" class="node">
<title>Node2</title>
<polygon fill="#bfbfbf" stroke="#000000" points="141.5,-.5 141.5,-90.5 245.5,-90.5 245.5,-.5 141.5,-.5"/>
<text text-anchor="middle" x="193.5" y="-78.5" font-family="Helvetica,sans-Serif" font-size="10.00" fill="#000000">async::StaticBulk</text>
<polyline fill="none" stroke="#000000" points="141.5,-71.5 245.5,-71.5 "/>
<text text-anchor="middle" x="193.5" y="-59.5" font-family="Helvetica,sans-Serif" font-size="10.00" fill="#000000"> </text>
<polyline fill="none" stroke="#000000" points="141.5,-52.5 245.5,-52.5 "/>
<text text-anchor="start" x="149.5" y="-40.5" font-family="Helvetica,sans-Serif" font-size="10.00" fill="#000000">+ StaticBulk()</text>
<text text-anchor="start" x="149.5" y="-29.5" font-family="Helvetica,sans-Serif" font-size="10.00" fill="#000000">+ ~StaticBulk()</text>
<text text-anchor="start" x="149.5" y="-18.5" font-family="Helvetica,sans-Serif" font-size="10.00" fill="#000000">+ addCommand()</text>
<text text-anchor="start" x="149.5" y="-7.5" font-family="Helvetica,sans-Serif" font-size="10.00" fill="#000000">+ is_valid()</text>
</g>
<!-- Node3 -->
<g id="node2" class="node">
<title>Node3</title>
<g id="a_node2"><a xlink:href="classasync_1_1Bulk.html" target="_top" xlink:title="{async::Bulk\n||+ Bulk()\l+ ~Bulk()\l+ addCommand()\l+ is_valid()\l+ start_time()\l+ output()\l}">
<polygon fill="none" stroke="#000000" points="141.5,-128.5 141.5,-240.5 245.5,-240.5 245.5,-128.5 141.5,-128.5"/>
<text text-anchor="middle" x="193.5" y="-228.5" font-family="Helvetica,sans-Serif" font-size="10.00" fill="#000000">async::Bulk</text>
<polyline fill="none" stroke="#000000" points="141.5,-221.5 245.5,-221.5 "/>
<text text-anchor="middle" x="193.5" y="-209.5" font-family="Helvetica,sans-Serif" font-size="10.00" fill="#000000"> </text>
<polyline fill="none" stroke="#000000" points="141.5,-202.5 245.5,-202.5 "/>
<text text-anchor="start" x="149.5" y="-190.5" font-family="Helvetica,sans-Serif" font-size="10.00" fill="#000000">+ Bulk()</text>
<text text-anchor="start" x="149.5" y="-179.5" font-family="Helvetica,sans-Serif" font-size="10.00" fill="#000000">+ ~Bulk()</text>
<text text-anchor="start" x="149.5" y="-168.5" font-family="Helvetica,sans-Serif" font-size="10.00" fill="#000000">+ addCommand()</text>
<text text-anchor="start" x="149.5" y="-157.5" font-family="Helvetica,sans-Serif" font-size="10.00" fill="#000000">+ is_valid()</text>
<text text-anchor="start" x="149.5" y="-146.5" font-family="Helvetica,sans-Serif" font-size="10.00" fill="#000000">+ start_time()</text>
<text text-anchor="start" x="149.5" y="-135.5" font-family="Helvetica,sans-Serif" font-size="10.00" fill="#000000">+ output()</text>
</a>
</g>
</g>
<!-- Node3&#45;&gt;Node2 -->
<g id="edge1" class="edge">
<title>Node3&#45;&gt;Node2</title>
<path fill="none" stroke="#191970" d="M193.5,-118.302C193.5,-108.9709 193.5,-99.5602 193.5,-90.7449"/>
<polygon fill="none" stroke="#191970" points="190.0001,-118.364 193.5,-128.364 197.0001,-118.3641 190.0001,-118.364"/>
</g>
<!-- Node4 -->
<g id="node3" class="node">
<title>Node4</title>
<polygon fill="none" stroke="#bfbfbf" points="0,-299.5 0,-356.5 69,-356.5 69,-299.5 0,-299.5"/>
<text text-anchor="middle" x="34.5" y="-344.5" font-family="Helvetica,sans-Serif" font-size="10.00" fill="#000000">time_point</text>
<polyline fill="none" stroke="#bfbfbf" points="0,-337.5 69,-337.5 "/>
<text text-anchor="middle" x="34.5" y="-325.5" font-family="Helvetica,sans-Serif" font-size="10.00" fill="#000000"> </text>
<polyline fill="none" stroke="#bfbfbf" points="0,-318.5 69,-318.5 "/>
<text text-anchor="middle" x="34.5" y="-306.5" font-family="Helvetica,sans-Serif" font-size="10.00" fill="#000000"> </text>
</g>
<!-- Node4&#45;&gt;Node3 -->
<g id="edge2" class="edge">
<title>Node4&#45;&gt;Node3</title>
<path fill="none" stroke="#404040" d="M65.4004,-299.3376C78.8905,-286.8853 94.9263,-272.1646 109.5,-259 116.8816,-252.3321 124.6582,-245.3621 132.379,-238.4756"/>
<polygon fill="none" stroke="#404040" points="132.4274,-238.4324 134.2487,-231.4551 141.3898,-230.4527 139.5685,-237.43 132.4274,-238.4324"/>
<text text-anchor="middle" x="126.5" y="-267.5" font-family="Helvetica,sans-Serif" font-size="10.00" fill="#000000"> #start</text>
</g>
<!-- Node5 -->
<g id="node4" class="node">
<title>Node5</title>
<polygon fill="none" stroke="#bfbfbf" points="87,-299.5 87,-356.5 206,-356.5 206,-299.5 87,-299.5"/>
<text text-anchor="middle" x="146.5" y="-344.5" font-family="Helvetica,sans-Serif" font-size="10.00" fill="#000000">vector&lt; std::string &gt;</text>
<polyline fill="none" stroke="#bfbfbf" points="87,-337.5 206,-337.5 "/>
<text text-anchor="middle" x="146.5" y="-325.5" font-family="Helvetica,sans-Serif" font-size="10.00" fill="#000000"> </text>
<polyline fill="none" stroke="#bfbfbf" points="87,-318.5 206,-318.5 "/>
<text text-anchor="middle" x="146.5" y="-306.5" font-family="Helvetica,sans-Serif" font-size="10.00" fill="#000000"> </text>
</g>
<!-- Node5&#45;&gt;Node3 -->
<g id="edge3" class="edge">
<title>Node5&#45;&gt;Node3</title>
<path fill="none" stroke="#404040" d="M146.3439,-299.2964C146.9478,-286.7036 148.5856,-271.8859 152.5,-259 153.1919,-256.7222 153.9594,-254.4358 154.7901,-252.1508"/>
<polygon fill="none" stroke="#404040" points="154.8917,-251.9008 153.4477,-244.8358 159.4138,-240.7854 160.8579,-247.8505 154.8917,-251.9008"/>
<text text-anchor="middle" x="185.5" y="-267.5" font-family="Helvetica,sans-Serif" font-size="10.00" fill="#000000"> #commands</text>
</g>
<!-- Node6 -->
<g id="node5" class="node">
<title>Node6</title>
<polygon fill="none" stroke="#bfbfbf" points="224,-299.5 224,-356.5 269,-356.5 269,-299.5 224,-299.5"/>
<text text-anchor="middle" x="246.5" y="-344.5" font-family="Helvetica,sans-Serif" font-size="10.00" fill="#000000">size_t</text>
<polyline fill="none" stroke="#bfbfbf" points="224,-337.5 269,-337.5 "/>
<text text-anchor="middle" x="246.5" y="-325.5" font-family="Helvetica,sans-Serif" font-size="10.00" fill="#000000"> </text>
<polyline fill="none" stroke="#bfbfbf" points="224,-318.5 269,-318.5 "/>
<text text-anchor="middle" x="246.5" y="-306.5" font-family="Helvetica,sans-Serif" font-size="10.00" fill="#000000"> </text>
</g>
<!-- Node6&#45;&gt;Node3 -->
<g id="edge4" class="edge">
<title>Node6&#45;&gt;Node3</title>
<path fill="none" stroke="#404040" d="M235.902,-299.3055C230.8704,-285.6822 224.6251,-268.7727 218.4882,-252.1568"/>
<polygon fill="none" stroke="#404040" points="218.4308,-252.0012 212.5998,-247.7587 214.2732,-240.7445 220.1043,-244.987 218.4308,-252.0012"/>
<text text-anchor="middle" x="274" y="-267.5" font-family="Helvetica,sans-Serif" font-size="10.00" fill="#000000"> #max_commands</text>
</g>
<!-- Node7 -->
<g id="node6" class="node">
<title>Node7</title>
<polygon fill="none" stroke="#bfbfbf" points="334.5,-299.5 334.5,-356.5 378.5,-356.5 378.5,-299.5 334.5,-299.5"/>
<text text-anchor="middle" x="356.5" y="-344.5" font-family="Helvetica,sans-Serif" font-size="10.00" fill="#000000">string</text>
<polyline fill="none" stroke="#bfbfbf" points="334.5,-337.5 378.5,-337.5 "/>
<text text-anchor="middle" x="356.5" y="-325.5" font-family="Helvetica,sans-Serif" font-size="10.00" fill="#000000"> </text>
<polyline fill="none" stroke="#bfbfbf" points="334.5,-318.5 378.5,-318.5 "/>
<text text-anchor="middle" x="356.5" y="-306.5" font-family="Helvetica,sans-Serif" font-size="10.00" fill="#000000"> </text>
</g>
<!-- Node7&#45;&gt;Node3 -->
<g id="edge5" class="edge">
<title>Node7&#45;&gt;Node3</title>
<path fill="none" stroke="#404040" d="M347.8278,-299.4597C342.6753,-286.0203 335.0521,-270.4646 324.5,-259 305.7623,-238.642 280.1508,-222.3904 256.5421,-210.3265"/>
<polygon fill="none" stroke="#404040" points="256.2828,-210.1992 249.134,-211.1452 245.5112,-204.9102 252.66,-203.9642 256.2828,-210.1992"/>
<text text-anchor="middle" x="383.5" y="-273" font-family="Helvetica,sans-Serif" font-size="10.00" fill="#000000"> #cmd_bulk_close</text>
<text text-anchor="middle" x="383.5" y="-262" font-family="Helvetica,sans-Serif" font-size="10.00" fill="#000000">#cmd_bulk_open</text>
</g>
</g>
</svg>
