<?xml version="1.0" encoding="UTF-8" standalone="no"?>
<!DOCTYPE svg PUBLIC "-//W3C//DTD SVG 1.1//EN"
 "http://www.w3.org/Graphics/SVG/1.1/DTD/svg11.dtd">
<!-- Generated by graphviz version 2.40.1 (20161225.0304)
 -->
<!-- Title: async::Bulk Pages: 1 -->
<svg width="250pt" height="281pt"
 viewBox="0.00 0.00 249.50 281.00" xmlns="http://www.w3.org/2000/svg" xmlns:xlink="http://www.w3.org/1999/xlink">
<g id="graph0" class="graph" transform="scale(1 1) rotate(0) translate(4 277)">
<title>async::Bulk</title>
<!-- Node0 -->
<g id="node1" class="node">
<title>Node0</title>
<polygon fill="#bfbfbf" stroke="#000000" points="68.5,-116.5 68.5,-272.5 177.5,-272.5 177.5,-116.5 68.5,-116.5"/>
<text text-anchor="middle" x="123" y="-260.5" font-family="Helvetica,sans-Serif" font-size="10.00" fill="#000000">async::Bulk</text>
<polyline fill="none" stroke="#000000" points="68.5,-253.5 177.5,-253.5 "/>
<text text-anchor="start" x="76.5" y="-241.5" font-family="Helvetica,sans-Serif" font-size="10.00" fill="#000000"># max_commands</text>
<text text-anchor="start" x="76.5" y="-230.5" font-family="Helvetica,sans-Serif" font-size="10.00" fill="#000000"># start</text>
<text text-anchor="start" x="76.5" y="-219.5" font-family="Helvetica,sans-Serif" font-size="10.00" fill="#000000"># commands</text>
<text text-anchor="start" x="76.5" y="-208.5" font-family="Helvetica,sans-Serif" font-size="10.00" fill="#000000"># cmd_bulk_open</text>
<text text-anchor="start" x="76.5" y="-197.5" font-family="Helvetica,sans-Serif" font-size="10.00" fill="#000000"># cmd_bulk_close</text>
<polyline fill="none" stroke="#000000" points="68.5,-190.5 177.5,-190.5 "/>
<text text-anchor="start" x="76.5" y="-178.5" font-family="Helvetica,sans-Serif" font-size="10.00" fill="#000000">+ Bulk()</text>
<text text-anchor="start" x="76.5" y="-167.5" font-family="Helvetica,sans-Serif" font-size="10.00" fill="#000000">+ ~Bulk()</text>
<text text-anchor="start" x="76.5" y="-156.5" font-family="Helvetica,sans-Serif" font-size="10.00" fill="#000000">+ add_command()</text>
<text text-anchor="start" x="76.5" y="-145.5" font-family="Helvetica,sans-Serif" font-size="10.00" fill="#000000">+ processible()</text>
<text text-anchor="start" x="76.5" y="-134.5" font-family="Helvetica,sans-Serif" font-size="10.00" fill="#000000">+ start_time()</text>
<text text-anchor="start" x="76.5" y="-123.5" font-family="Helvetica,sans-Serif" font-size="10.00" fill="#000000">+ output()</text>
</g>
<!-- Node1 -->
<g id="node2" class="node">
<title>Node1</title>
<g id="a_node2"><a xlink:href="classasync_1_1DynamicBulk.html" target="_top" xlink:title="{async::DynamicBulk\n||+ DynamicBulk()\l+ add_command()\l+ processible()\l}">
<polygon fill="none" stroke="#000000" points="0,-.5 0,-79.5 116,-79.5 116,-.5 0,-.5"/>
<text text-anchor="middle" x="58" y="-67.5" font-family="Helvetica,sans-Serif" font-size="10.00" fill="#000000">async::DynamicBulk</text>
<polyline fill="none" stroke="#000000" points="0,-60.5 116,-60.5 "/>
<text text-anchor="middle" x="58" y="-48.5" font-family="Helvetica,sans-Serif" font-size="10.00" fill="#000000"> </text>
<polyline fill="none" stroke="#000000" points="0,-41.5 116,-41.5 "/>
<text text-anchor="start" x="8" y="-29.5" font-family="Helvetica,sans-Serif" font-size="10.00" fill="#000000">+ DynamicBulk()</text>
<text text-anchor="start" x="8" y="-18.5" font-family="Helvetica,sans-Serif" font-size="10.00" fill="#000000">+ add_command()</text>
<text text-anchor="start" x="8" y="-7.5" font-family="Helvetica,sans-Serif" font-size="10.00" fill="#000000">+ processible()</text>
</a>
</g>
</g>
<!-- Node0&#45;&gt;Node1 -->
<g id="edge1" class="edge">
<title>Node0&#45;&gt;Node1</title>
<path fill="none" stroke="#191970" d="M86.2405,-107.1255C82.2148,-97.5567 78.2778,-88.1988 74.6824,-79.6528"/>
<polygon fill="none" stroke="#191970" points="83.0151,-108.4845 90.1191,-116.3447 89.4673,-105.77 83.0151,-108.4845"/>
</g>
<!-- Node2 -->
<g id="node3" class="node">
<title>Node2</title>
<g id="a_node3"><a xlink:href="classasync_1_1StaticBulk.html" target="_top" xlink:title="{async::StaticBulk\n||+ StaticBulk()\l+ add_command()\l+ processible()\l}">
<polygon fill="none" stroke="#000000" points="134.5,-.5 134.5,-79.5 241.5,-79.5 241.5,-.5 134.5,-.5"/>
<text text-anchor="middle" x="188" y="-67.5" font-family="Helvetica,sans-Serif" font-size="10.00" fill="#000000">async::StaticBulk</text>
<polyline fill="none" stroke="#000000" points="134.5,-60.5 241.5,-60.5 "/>
<text text-anchor="middle" x="188" y="-48.5" font-family="Helvetica,sans-Serif" font-size="10.00" fill="#000000"> </text>
<polyline fill="none" stroke="#000000" points="134.5,-41.5 241.5,-41.5 "/>
<text text-anchor="start" x="142.5" y="-29.5" font-family="Helvetica,sans-Serif" font-size="10.00" fill="#000000">+ StaticBulk()</text>
<text text-anchor="start" x="142.5" y="-18.5" font-family="Helvetica,sans-Serif" font-size="10.00" fill="#000000">+ add_command()</text>
<text text-anchor="start" x="142.5" y="-7.5" font-family="Helvetica,sans-Serif" font-size="10.00" fill="#000000">+ processible()</text>
</a>
</g>
</g>
<!-- Node0&#45;&gt;Node2 -->
<g id="edge2" class="edge">
<title>Node0&#45;&gt;Node2</title>
<path fill="none" stroke="#191970" d="M159.7595,-107.1255C163.7852,-97.5567 167.7222,-88.1988 171.3176,-79.6528"/>
<polygon fill="none" stroke="#191970" points="156.5327,-105.77 155.8809,-116.3447 162.9849,-108.4845 156.5327,-105.77"/>
</g>
</g>
</svg>
