<?xml version="1.0" encoding="UTF-8" standalone="no"?>
<!DOCTYPE svg PUBLIC "-//W3C//DTD SVG 1.1//EN"
 "http://www.w3.org/Graphics/SVG/1.1/DTD/svg11.dtd">
<!-- Generated by graphviz version 2.40.1 (20161225.0304)
 -->
<!-- Title: Generator&lt; T &gt; Pages: 1 -->
<svg width="310pt" height="354pt"
 viewBox="0.00 0.00 310.00 354.00" xmlns="http://www.w3.org/2000/svg" xmlns:xlink="http://www.w3.org/1999/xlink">
<g id="graph0" class="graph" transform="scale(1 1) rotate(0) translate(4 350)">
<title>Generator&lt; T &gt;</title>
<!-- Node0 -->
<g id="node1" class="node">
<title>Node0</title>
<polygon fill="#bfbfbf" stroke="#000000" points="106,-255.5 106,-345.5 200,-345.5 200,-255.5 106,-255.5"/>
<text text-anchor="middle" x="153" y="-333.5" font-family="Helvetica,sans-Serif" font-size="10.00" fill="#000000">Generator&lt; T &gt;</text>
<polyline fill="none" stroke="#000000" points="106,-326.5 200,-326.5 "/>
<text text-anchor="middle" x="153" y="-314.5" font-family="Helvetica,sans-Serif" font-size="10.00" fill="#000000"> </text>
<polyline fill="none" stroke="#000000" points="106,-307.5 200,-307.5 "/>
<text text-anchor="start" x="114" y="-295.5" font-family="Helvetica,sans-Serif" font-size="10.00" fill="#000000">+ Generator()</text>
<text text-anchor="start" x="114" y="-284.5" font-family="Helvetica,sans-Serif" font-size="10.00" fill="#000000">+ begin()</text>
<text text-anchor="start" x="114" y="-273.5" font-family="Helvetica,sans-Serif" font-size="10.00" fill="#000000">+ end()</text>
<text text-anchor="start" x="114" y="-262.5" font-family="Helvetica,sans-Serif" font-size="10.00" fill="#000000">+ get()</text>
</g>
<!-- Node1 -->
<g id="node2" class="node">
<title>Node1</title>
<g id="a_node2"><a xlink:href="classGenerator.html" target="_top" xlink:title="{Generator\&lt; std::string \&gt;\n||+ Generator()\l+ begin()\l+ end()\l+ get()\l}">
<polygon fill="none" stroke="#000000" points="9.5,-112 9.5,-202 146.5,-202 146.5,-112 9.5,-112"/>
<text text-anchor="middle" x="78" y="-190" font-family="Helvetica,sans-Serif" font-size="10.00" fill="#000000">Generator&lt; std::string &gt;</text>
<polyline fill="none" stroke="#000000" points="9.5,-183 146.5,-183 "/>
<text text-anchor="middle" x="78" y="-171" font-family="Helvetica,sans-Serif" font-size="10.00" fill="#000000"> </text>
<polyline fill="none" stroke="#000000" points="9.5,-164 146.5,-164 "/>
<text text-anchor="start" x="17.5" y="-152" font-family="Helvetica,sans-Serif" font-size="10.00" fill="#000000">+ Generator()</text>
<text text-anchor="start" x="17.5" y="-141" font-family="Helvetica,sans-Serif" font-size="10.00" fill="#000000">+ begin()</text>
<text text-anchor="start" x="17.5" y="-130" font-family="Helvetica,sans-Serif" font-size="10.00" fill="#000000">+ end()</text>
<text text-anchor="start" x="17.5" y="-119" font-family="Helvetica,sans-Serif" font-size="10.00" fill="#000000">+ get()</text>
</a>
</g>
</g>
<!-- Node0&#45;&gt;Node1 -->
<g id="edge1" class="edge">
<title>Node0&#45;&gt;Node1</title>
<path fill="none" stroke="#ffa500" d="M122.9409,-246.3062C121.2569,-243.1643 119.5998,-240.0454 118,-237 112.0784,-225.7276 105.8463,-213.4685 100.1102,-202.0115"/>
<polygon fill="#ffa500" stroke="#ffa500" points="119.9013,-248.0435 127.7323,-255.1798 126.0607,-244.7177 119.9013,-248.0435"/>
<text text-anchor="middle" x="155.5" y="-229" font-family="Helvetica,sans-Serif" font-size="10.00" fill="#000000"> &lt; std::string &gt;</text>
</g>
<!-- Node3 -->
<g id="node4" class="node">
<title>Node3</title>
<g id="a_node4"><a xlink:href="classGenerator.html" target="_top" xlink:title="{Generator\&lt; Iter::value\l_type \&gt;\n||+ Generator()\l+ begin()\l+ end()\l+ get()\l}">
<polygon fill="none" stroke="#000000" points="167,-106.5 167,-207.5 293,-207.5 293,-106.5 167,-106.5"/>
<text text-anchor="start" x="175" y="-195.5" font-family="Helvetica,sans-Serif" font-size="10.00" fill="#000000">Generator&lt; Iter::value</text>
<text text-anchor="middle" x="230" y="-184.5" font-family="Helvetica,sans-Serif" font-size="10.00" fill="#000000">_type &gt;</text>
<polyline fill="none" stroke="#000000" points="167,-177.5 293,-177.5 "/>
<text text-anchor="middle" x="230" y="-165.5" font-family="Helvetica,sans-Serif" font-size="10.00" fill="#000000"> </text>
<polyline fill="none" stroke="#000000" points="167,-158.5 293,-158.5 "/>
<text text-anchor="start" x="175" y="-146.5" font-family="Helvetica,sans-Serif" font-size="10.00" fill="#000000">+ Generator()</text>
<text text-anchor="start" x="175" y="-135.5" font-family="Helvetica,sans-Serif" font-size="10.00" fill="#000000">+ begin()</text>
<text text-anchor="start" x="175" y="-124.5" font-family="Helvetica,sans-Serif" font-size="10.00" fill="#000000">+ end()</text>
<text text-anchor="start" x="175" y="-113.5" font-family="Helvetica,sans-Serif" font-size="10.00" fill="#000000">+ get()</text>
</a>
</g>
</g>
<!-- Node0&#45;&gt;Node3 -->
<g id="edge3" class="edge">
<title>Node0&#45;&gt;Node3</title>
<path fill="none" stroke="#ffa500" d="M187.4931,-246.7958C189.3988,-243.5061 191.2487,-240.2235 193,-237 198.0404,-227.7221 203.0517,-217.6338 207.6834,-207.846"/>
<polygon fill="#ffa500" stroke="#ffa500" points="184.4317,-245.0967 182.3479,-255.4846 190.4549,-248.6634 184.4317,-245.0967"/>
<text text-anchor="middle" x="250.5" y="-229" font-family="Helvetica,sans-Serif" font-size="10.00" fill="#000000"> &lt; Iter::value_type &gt;</text>
</g>
<!-- Node2 -->
<g id="node3" class="node">
<title>Node2</title>
<g id="a_node3"><a xlink:href="classRandomBraceGenerator.html" target="_top" xlink:title="Generator for random commands with braces Generated string template is {prefix}{index}, where index = 1,2,3...len or &quot;{&quot; or &quot;}&quot;. ">
<polygon fill="none" stroke="#000000" points="0,-.5 0,-68.5 152,-68.5 152,-.5 0,-.5"/>
<text text-anchor="middle" x="76" y="-56.5" font-family="Helvetica,sans-Serif" font-size="10.00" fill="#000000">RandomBraceGenerator</text>
<polyline fill="none" stroke="#000000" points="0,-49.5 152,-49.5 "/>
<text text-anchor="middle" x="76" y="-37.5" font-family="Helvetica,sans-Serif" font-size="10.00" fill="#000000"> </text>
<polyline fill="none" stroke="#000000" points="0,-30.5 152,-30.5 "/>
<text text-anchor="start" x="8" y="-18.5" font-family="Helvetica,sans-Serif" font-size="10.00" fill="#000000">+ RandomBraceGenerator()</text>
<text text-anchor="start" x="8" y="-7.5" font-family="Helvetica,sans-Serif" font-size="10.00" fill="#000000">+ get()</text>
</a>
</g>
</g>
<!-- Node1&#45;&gt;Node2 -->
<g id="edge2" class="edge">
<title>Node1&#45;&gt;Node2</title>
<path fill="none" stroke="#191970" d="M77.0956,-101.6064C76.9135,-90.4521 76.7271,-79.0365 76.5609,-68.8573"/>
<polygon fill="none" stroke="#191970" points="73.5981,-101.7921 77.261,-111.7336 80.5971,-101.6777 73.5981,-101.7921"/>
</g>
<!-- Node4 -->
<g id="node5" class="node">
<title>Node4</title>
<g id="a_node5"><a xlink:href="classIterGenerator.html" target="_top" xlink:title="Generator for any iterated data. ">
<polygon fill="none" stroke="#000000" points="170.5,-.5 170.5,-68.5 291.5,-68.5 291.5,-.5 170.5,-.5"/>
<text text-anchor="middle" x="231" y="-56.5" font-family="Helvetica,sans-Serif" font-size="10.00" fill="#000000">IterGenerator&lt; Iter &gt;</text>
<polyline fill="none" stroke="#000000" points="170.5,-49.5 291.5,-49.5 "/>
<text text-anchor="middle" x="231" y="-37.5" font-family="Helvetica,sans-Serif" font-size="10.00" fill="#000000"> </text>
<polyline fill="none" stroke="#000000" points="170.5,-30.5 291.5,-30.5 "/>
<text text-anchor="start" x="178.5" y="-18.5" font-family="Helvetica,sans-Serif" font-size="10.00" fill="#000000">+ IterGenerator()</text>
<text text-anchor="start" x="178.5" y="-7.5" font-family="Helvetica,sans-Serif" font-size="10.00" fill="#000000">+ get()</text>
</a>
</g>
</g>
<!-- Node3&#45;&gt;Node4 -->
<g id="edge4" class="edge">
<title>Node3&#45;&gt;Node4</title>
<path fill="none" stroke="#191970" d="M230.4964,-96.186C230.5742,-86.6659 230.652,-77.1318 230.7224,-68.5036"/>
<polygon fill="none" stroke="#191970" points="226.9944,-96.439 230.4125,-106.4673 233.9941,-96.4963 226.9944,-96.439"/>
</g>
</g>
</svg>
