<?xml version="1.0" encoding="UTF-8" standalone="no"?>
<!DOCTYPE svg PUBLIC "-//W3C//DTD SVG 1.1//EN"
 "http://www.w3.org/Graphics/SVG/1.1/DTD/svg11.dtd">
<!-- Generated by graphviz version 2.40.1 (20161225.0304)
 -->
<!-- Title: async/include/context_manager.h Pages: 1 -->
<svg width="380pt" height="95pt"
 viewBox="0.00 0.00 380.00 95.00" xmlns="http://www.w3.org/2000/svg" xmlns:xlink="http://www.w3.org/1999/xlink">
<g id="graph0" class="graph" transform="scale(1 1) rotate(0) translate(4 91)">
<title>async/include/context_manager.h</title>
<!-- Node0 -->
<g id="node1" class="node">
<title>Node0</title>
<polygon fill="#bfbfbf" stroke="#000000" points="105.5,-56.5 105.5,-86.5 228.5,-86.5 228.5,-56.5 105.5,-56.5"/>
<text text-anchor="start" x="113.5" y="-74.5" font-family="Helvetica,sans-Serif" font-size="10.00" fill="#000000">async/include/context</text>
<text text-anchor="middle" x="167" y="-63.5" font-family="Helvetica,sans-Serif" font-size="10.00" fill="#000000">_manager.h</text>
</g>
<!-- Node1 -->
<g id="node2" class="node">
<title>Node1</title>
<polygon fill="none" stroke="#bfbfbf" points="0,-.5 0,-19.5 58,-19.5 58,-.5 0,-.5"/>
<text text-anchor="middle" x="29" y="-7.5" font-family="Helvetica,sans-Serif" font-size="10.00" fill="#000000">memory</text>
</g>
<!-- Node0&#45;&gt;Node1 -->
<g id="edge1" class="edge">
<title>Node0&#45;&gt;Node1</title>
<path fill="none" stroke="#191970" d="M133.2414,-56.4554C110.7207,-46.419 81.3533,-33.3314 59.5308,-23.6061"/>
<polygon fill="#191970" stroke="#191970" points="60.9439,-20.4041 50.3851,-19.5303 58.0944,-26.7979 60.9439,-20.4041"/>
</g>
<!-- Node2 -->
<g id="node3" class="node">
<title>Node2</title>
<polygon fill="none" stroke="#bfbfbf" points="76,-.5 76,-19.5 114,-19.5 114,-.5 76,-.5"/>
<text text-anchor="middle" x="95" y="-7.5" font-family="Helvetica,sans-Serif" font-size="10.00" fill="#000000">map</text>
</g>
<!-- Node0&#45;&gt;Node2 -->
<g id="edge2" class="edge">
<title>Node0&#45;&gt;Node2</title>
<path fill="none" stroke="#191970" d="M149.2022,-56.2977C138.5833,-47.2274 125.0969,-35.7077 114.2333,-26.4285"/>
<polygon fill="#191970" stroke="#191970" points="116.4051,-23.6805 106.5281,-19.8469 111.8587,-29.0031 116.4051,-23.6805"/>
</g>
<!-- Node3 -->
<g id="node4" class="node">
<title>Node3</title>
<polygon fill="none" stroke="#bfbfbf" points="132.5,-.5 132.5,-19.5 201.5,-19.5 201.5,-.5 132.5,-.5"/>
<text text-anchor="middle" x="167" y="-7.5" font-family="Helvetica,sans-Serif" font-size="10.00" fill="#000000">type_traits</text>
</g>
<!-- Node0&#45;&gt;Node3 -->
<g id="edge3" class="edge">
<title>Node0&#45;&gt;Node3</title>
<path fill="none" stroke="#191970" d="M167,-56.2977C167,-48.3834 167,-38.6043 167,-30.0759"/>
<polygon fill="#191970" stroke="#191970" points="170.5001,-29.8469 167,-19.8469 163.5001,-29.847 170.5001,-29.8469"/>
</g>
<!-- Node4 -->
<g id="node5" class="node">
<title>Node4</title>
<polygon fill="none" stroke="#bfbfbf" points="220,-.5 220,-19.5 268,-19.5 268,-.5 220,-.5"/>
<text text-anchor="middle" x="244" y="-7.5" font-family="Helvetica,sans-Serif" font-size="10.00" fill="#000000">mutex</text>
</g>
<!-- Node0&#45;&gt;Node4 -->
<g id="edge4" class="edge">
<title>Node0&#45;&gt;Node4</title>
<path fill="none" stroke="#191970" d="M186.0337,-56.2977C197.5015,-47.1384 212.0962,-35.4816 223.7719,-26.1562"/>
<polygon fill="#191970" stroke="#191970" points="226.0419,-28.8225 231.6713,-19.8469 221.6734,-23.3529 226.0419,-28.8225"/>
</g>
<!-- Node5 -->
<g id="node6" class="node">
<title>Node5</title>
<polygon fill="none" stroke="#bfbfbf" points="286,-.5 286,-19.5 372,-19.5 372,-.5 286,-.5"/>
<text text-anchor="middle" x="329" y="-7.5" font-family="Helvetica,sans-Serif" font-size="10.00" fill="#000000">shared_mutex</text>
</g>
<!-- Node0&#45;&gt;Node5 -->
<g id="edge5" class="edge">
<title>Node0&#45;&gt;Node5</title>
<path fill="none" stroke="#191970" d="M206.6297,-56.4554C233.5412,-46.239 268.7811,-32.8609 294.5294,-23.0861"/>
<polygon fill="#191970" stroke="#191970" points="295.789,-26.3517 303.8957,-19.5303 293.3045,-19.8074 295.789,-26.3517"/>
</g>
</g>
</svg>
