<?xml version="1.0" encoding="UTF-8" standalone="no"?>
<!DOCTYPE svg PUBLIC "-//W3C//DTD SVG 1.1//EN"
 "http://www.w3.org/Graphics/SVG/1.1/DTD/svg11.dtd">
<!-- Generated by graphviz version 2.40.1 (20161225.0304)
 -->
<!-- Title: async_demo/generator.h Pages: 1 -->
<svg width="300pt" height="84pt"
 viewBox="0.00 0.00 300.00 84.00" xmlns="http://www.w3.org/2000/svg" xmlns:xlink="http://www.w3.org/1999/xlink">
<g id="graph0" class="graph" transform="scale(1 1) rotate(0) translate(4 80)">
<title>async_demo/generator.h</title>
<!-- Node3 -->
<g id="node1" class="node">
<title>Node3</title>
<polygon fill="#bfbfbf" stroke="#000000" points="82.5,-56.5 82.5,-75.5 219.5,-75.5 219.5,-56.5 82.5,-56.5"/>
<text text-anchor="middle" x="151" y="-63.5" font-family="Helvetica,sans-Serif" font-size="10.00" fill="#000000">async_demo/generator.h</text>
</g>
<!-- Node4 -->
<g id="node2" class="node">
<title>Node4</title>
<polygon fill="none" stroke="#bfbfbf" points="0,-.5 0,-19.5 148,-19.5 148,-.5 0,-.5"/>
<text text-anchor="middle" x="74" y="-7.5" font-family="Helvetica,sans-Serif" font-size="10.00" fill="#000000">async_demo/generator.cpp</text>
</g>
<!-- Node3&#45;&gt;Node4 -->
<g id="edge1" class="edge">
<title>Node3&#45;&gt;Node4</title>
<path fill="none" stroke="#191970" d="M129.2884,-50.2097C115.7647,-40.3743 98.8042,-28.0394 87.2587,-19.6427"/>
<polygon fill="#191970" stroke="#191970" points="127.4416,-53.1944 137.5876,-56.2455 131.5589,-47.5332 127.4416,-53.1944"/>
</g>
<!-- Node5 -->
<g id="node3" class="node">
<title>Node5</title>
<g id="a_node3"><a xlink:href="main_8cpp.html" target="_top" xlink:title="async_demo/main.cpp">
<polygon fill="none" stroke="#000000" points="166,-.5 166,-19.5 292,-19.5 292,-.5 166,-.5"/>
<text text-anchor="middle" x="229" y="-7.5" font-family="Helvetica,sans-Serif" font-size="10.00" fill="#000000">async_demo/main.cpp</text>
</a>
</g>
</g>
<!-- Node3&#45;&gt;Node5 -->
<g id="edge2" class="edge">
<title>Node3&#45;&gt;Node5</title>
<path fill="none" stroke="#191970" d="M172.9936,-50.2097C186.6929,-40.3743 203.8736,-28.0394 215.5691,-19.6427"/>
<polygon fill="#191970" stroke="#191970" points="170.6686,-47.5703 164.5866,-56.2455 174.7511,-53.2566 170.6686,-47.5703"/>
</g>
</g>
</svg>
