<?xml version="1.0" encoding="UTF-8" standalone="no"?>
<!DOCTYPE svg PUBLIC "-//W3C//DTD SVG 1.1//EN"
 "http://www.w3.org/Graphics/SVG/1.1/DTD/svg11.dtd">
<!-- Generated by graphviz version 2.40.1 (20161225.0304)
 -->
<!-- Title: async_demo/generator.h Pages: 1 -->
<svg width="145pt" height="84pt"
 viewBox="0.00 0.00 145.00 84.00" xmlns="http://www.w3.org/2000/svg" xmlns:xlink="http://www.w3.org/1999/xlink">
<g id="graph0" class="graph" transform="scale(1 1) rotate(0) translate(4 80)">
<title>async_demo/generator.h</title>
<!-- Node0 -->
<g id="node1" class="node">
<title>Node0</title>
<polygon fill="#bfbfbf" stroke="#000000" points="0,-56.5 0,-75.5 137,-75.5 137,-56.5 0,-56.5"/>
<text text-anchor="middle" x="68.5" y="-63.5" font-family="Helvetica,sans-Serif" font-size="10.00" fill="#000000">async_demo/generator.h</text>
</g>
<!-- Node1 -->
<g id="node2" class="node">
<title>Node1</title>
<polygon fill="none" stroke="#bfbfbf" points="13.5,-.5 13.5,-19.5 57.5,-19.5 57.5,-.5 13.5,-.5"/>
<text text-anchor="middle" x="35.5" y="-7.5" font-family="Helvetica,sans-Serif" font-size="10.00" fill="#000000">string</text>
</g>
<!-- Node0&#45;&gt;Node1 -->
<g id="edge1" class="edge">
<title>Node0&#45;&gt;Node1</title>
<path fill="none" stroke="#191970" d="M62.7518,-56.2455C58.2565,-48.617 51.8752,-37.7881 46.4175,-28.5267"/>
<polygon fill="#191970" stroke="#191970" points="49.2747,-26.4811 41.1823,-19.6427 43.2439,-30.035 49.2747,-26.4811"/>
</g>
<!-- Node2 -->
<g id="node3" class="node">
<title>Node2</title>
<polygon fill="none" stroke="#bfbfbf" points="75.5,-.5 75.5,-19.5 129.5,-19.5 129.5,-.5 75.5,-.5"/>
<text text-anchor="middle" x="102.5" y="-7.5" font-family="Helvetica,sans-Serif" font-size="10.00" fill="#000000">random</text>
</g>
<!-- Node0&#45;&gt;Node2 -->
<g id="edge2" class="edge">
<title>Node0&#45;&gt;Node2</title>
<path fill="none" stroke="#191970" d="M74.4223,-56.2455C79.1027,-48.5367 85.7673,-37.5598 91.4289,-28.2348"/>
<polygon fill="#191970" stroke="#191970" points="94.4475,-30.007 96.6455,-19.6427 88.4639,-26.3741 94.4475,-30.007"/>
</g>
</g>
</svg>
