<?xml version="1.0" encoding="UTF-8" standalone="no"?>
<!DOCTYPE svg PUBLIC "-//W3C//DTD SVG 1.1//EN"
 "http://www.w3.org/Graphics/SVG/1.1/DTD/svg11.dtd">
<!-- Generated by graphviz version 2.40.1 (20161225.0304)
 -->
<!-- Title: Graphical Class Hierarchy Pages: 1 -->
<svg width="243pt" height="66pt"
 viewBox="0.00 0.00 243.00 66.00" xmlns="http://www.w3.org/2000/svg" xmlns:xlink="http://www.w3.org/1999/xlink">
<g id="graph0" class="graph" transform="scale(1 1) rotate(0) translate(4 62)">
<title>Graphical Class Hierarchy</title>
<!-- Node0 -->
<g id="node1" class="node">
<title>Node0</title>
<g id="a_node1"><a xlink:href="classGenerator.html" target="_top" xlink:title="String data Generator interface. ">
<polygon fill="none" stroke="#000000" points="0,-19.5 0,-38.5 65,-38.5 65,-19.5 0,-19.5"/>
<text text-anchor="middle" x="32.5" y="-26.5" font-family="Helvetica,sans-Serif" font-size="10.00" fill="#000000">Generator</text>
</a>
</g>
</g>
<!-- Node1 -->
<g id="node2" class="node">
<title>Node1</title>
<g id="a_node2"><a xlink:href="classIterGenerator.html" target="_top" xlink:title="Generator for any iterated data. ">
<polygon fill="none" stroke="#000000" points="107.5,-38.5 107.5,-57.5 228.5,-57.5 228.5,-38.5 107.5,-38.5"/>
<text text-anchor="middle" x="168" y="-45.5" font-family="Helvetica,sans-Serif" font-size="10.00" fill="#000000">IterGenerator&lt; Iter &gt;</text>
</a>
</g>
</g>
<!-- Node0&#45;&gt;Node1 -->
<g id="edge1" class="edge">
<title>Node0&#45;&gt;Node1</title>
<path fill="none" stroke="#191970" d="M75.5173,-35.032C85.6634,-36.4546 96.6673,-37.9976 107.4269,-39.5064"/>
<polygon fill="#191970" stroke="#191970" points="75.6899,-31.522 65.3008,-33.5994 74.7178,-38.4542 75.6899,-31.522"/>
</g>
<!-- Node2 -->
<g id="node3" class="node">
<title>Node2</title>
<g id="a_node3"><a xlink:href="classRandomBraceGenerator.html" target="_top" xlink:title="Generator for random commands with braces Generated string template is {prefix}{index}, where index = 1,2,3...len or &quot;{&quot; or &quot;}&quot;. ">
<polygon fill="none" stroke="#000000" points="101,-.5 101,-19.5 235,-19.5 235,-.5 101,-.5"/>
<text text-anchor="middle" x="168" y="-7.5" font-family="Helvetica,sans-Serif" font-size="10.00" fill="#000000">RandomBraceGenerator</text>
</a>
</g>
</g>
<!-- Node0&#45;&gt;Node2 -->
<g id="edge2" class="edge">
<title>Node0&#45;&gt;Node2</title>
<path fill="none" stroke="#191970" d="M75.3157,-22.9963C83.4946,-21.8495 92.2368,-20.6236 100.9633,-19.4"/>
<polygon fill="#191970" stroke="#191970" points="74.7178,-19.5458 65.3008,-24.4006 75.6899,-26.478 74.7178,-19.5458"/>
</g>
</g>
</svg>
