<?xml version="1.0" encoding="UTF-8" standalone="no"?>
<!DOCTYPE svg PUBLIC "-//W3C//DTD SVG 1.1//EN"
 "http://www.w3.org/Graphics/SVG/1.1/DTD/svg11.dtd">
<!-- Generated by graphviz version 2.40.1 (20161225.0304)
 -->
<!-- Title: Graphical Class Hierarchy Pages: 1 -->
<svg width="233pt" height="66pt"
 viewBox="0.00 0.00 233.00 66.00" xmlns="http://www.w3.org/2000/svg" xmlns:xlink="http://www.w3.org/1999/xlink">
<g id="graph0" class="graph" transform="scale(1 1) rotate(0) translate(4 62)">
<title>Graphical Class Hierarchy</title>
<!-- Node0 -->
<g id="node1" class="node">
<title>Node0</title>
<g id="a_node1"><a xlink:href="classasync_1_1Bulk.html" target="_top" xlink:title="async::Bulk">
<polygon fill="none" stroke="#000000" points="0,-19.5 0,-38.5 73,-38.5 73,-19.5 0,-19.5"/>
<text text-anchor="middle" x="36.5" y="-26.5" font-family="Helvetica,sans-Serif" font-size="10.00" fill="#000000">async::Bulk</text>
</a>
</g>
</g>
<!-- Node1 -->
<g id="node2" class="node">
<title>Node1</title>
<g id="a_node2"><a xlink:href="classasync_1_1DynamicBulk.html" target="_top" xlink:title="async::DynamicBulk">
<polygon fill="none" stroke="#000000" points="109,-38.5 109,-57.5 225,-57.5 225,-38.5 109,-38.5"/>
<text text-anchor="middle" x="167" y="-45.5" font-family="Helvetica,sans-Serif" font-size="10.00" fill="#000000">async::DynamicBulk</text>
</a>
</g>
</g>
<!-- Node0&#45;&gt;Node1 -->
<g id="edge1" class="edge">
<title>Node0&#45;&gt;Node1</title>
<path fill="none" stroke="#191970" d="M83.315,-35.816C91.5145,-37.0098 100.1372,-38.2652 108.6041,-39.4979"/>
<polygon fill="#191970" stroke="#191970" points="83.5988,-32.3205 73.1988,-34.3431 82.5902,-39.2474 83.5988,-32.3205"/>
</g>
<!-- Node2 -->
<g id="node3" class="node">
<title>Node2</title>
<g id="a_node3"><a xlink:href="classasync_1_1StaticBulk.html" target="_top" xlink:title="async::StaticBulk">
<polygon fill="none" stroke="#000000" points="116.5,-.5 116.5,-19.5 217.5,-19.5 217.5,-.5 116.5,-.5"/>
<text text-anchor="middle" x="167" y="-7.5" font-family="Helvetica,sans-Serif" font-size="10.00" fill="#000000">async::StaticBulk</text>
</a>
</g>
</g>
<!-- Node0&#45;&gt;Node2 -->
<g id="edge2" class="edge">
<title>Node0&#45;&gt;Node2</title>
<path fill="none" stroke="#191970" d="M83.2589,-22.1922C94.0305,-20.6239 105.535,-18.9489 116.4592,-17.3584"/>
<polygon fill="#191970" stroke="#191970" points="82.5902,-18.7526 73.1988,-23.6569 83.5988,-25.6795 82.5902,-18.7526"/>
</g>
</g>
</svg>
