<?xml version="1.0" encoding="UTF-8" standalone="no"?>
<!DOCTYPE svg PUBLIC "-//W3C//DTD SVG 1.1//EN"
 "http://www.w3.org/Graphics/SVG/1.1/DTD/svg11.dtd">
<!-- Generated by graphviz version 2.40.1 (20161225.0304)
 -->
<!-- Title: async_demo/main.cpp Pages: 1 -->
<svg width="296pt" height="140pt"
 viewBox="0.00 0.00 296.00 140.00" xmlns="http://www.w3.org/2000/svg" xmlns:xlink="http://www.w3.org/1999/xlink">
<g id="graph0" class="graph" transform="scale(1 1) rotate(0) translate(4 136)">
<title>async_demo/main.cpp</title>
<!-- Node0 -->
<g id="node1" class="node">
<title>Node0</title>
<polygon fill="#bfbfbf" stroke="#000000" points="87,-112.5 87,-131.5 213,-131.5 213,-112.5 87,-112.5"/>
<text text-anchor="middle" x="150" y="-119.5" font-family="Helvetica,sans-Serif" font-size="10.00" fill="#000000">async_demo/main.cpp</text>
</g>
<!-- Node1 -->
<g id="node2" class="node">
<title>Node1</title>
<g id="a_node2"><a xlink:href="async_8h.html" target="_top" xlink:title="Home work 8 &#45; asyn library. Separates incoming commands to bulks and outputs it to console and files...">
<polygon fill="none" stroke="#000000" points="0,-56.5 0,-75.5 54,-75.5 54,-56.5 0,-56.5"/>
<text text-anchor="middle" x="27" y="-63.5" font-family="Helvetica,sans-Serif" font-size="10.00" fill="#000000">async.h</text>
</a>
</g>
</g>
<!-- Node0&#45;&gt;Node1 -->
<g id="edge1" class="edge">
<title>Node0&#45;&gt;Node1</title>
<path fill="none" stroke="#191970" d="M128.8555,-112.3733C109.1108,-103.3838 79.4302,-89.8706 57.1945,-79.7471"/>
<polygon fill="#191970" stroke="#191970" points="58.42,-76.4594 47.8685,-75.5011 55.5194,-82.8302 58.42,-76.4594"/>
</g>
<!-- Node3 -->
<g id="node4" class="node">
<title>Node3</title>
<g id="a_node4"><a xlink:href="generator_8h.html" target="_top" xlink:title="Helper classes to generate and iterate through data. ">
<polygon fill="none" stroke="#000000" points="72,-56.5 72,-75.5 144,-75.5 144,-56.5 72,-56.5"/>
<text text-anchor="middle" x="108" y="-63.5" font-family="Helvetica,sans-Serif" font-size="10.00" fill="#000000">generator.h</text>
</a>
</g>
</g>
<!-- Node0&#45;&gt;Node3 -->
<g id="edge3" class="edge">
<title>Node0&#45;&gt;Node3</title>
<path fill="none" stroke="#191970" d="M142.6842,-112.2455C136.7821,-104.3761 128.3258,-93.101 121.2406,-83.6542"/>
<polygon fill="#191970" stroke="#191970" points="124.0321,-81.5427 115.232,-75.6427 118.432,-85.7427 124.0321,-81.5427"/>
</g>
<!-- Node6 -->
<g id="node7" class="node">
<title>Node6</title>
<polygon fill="none" stroke="#bfbfbf" points="162,-56.5 162,-75.5 222,-75.5 222,-56.5 162,-56.5"/>
<text text-anchor="middle" x="192" y="-63.5" font-family="Helvetica,sans-Serif" font-size="10.00" fill="#000000">iostream</text>
</g>
<!-- Node0&#45;&gt;Node6 -->
<g id="edge6" class="edge">
<title>Node0&#45;&gt;Node6</title>
<path fill="none" stroke="#191970" d="M157.3158,-112.2455C163.2179,-104.3761 171.6742,-93.101 178.7594,-83.6542"/>
<polygon fill="#191970" stroke="#191970" points="181.568,-85.7427 184.768,-75.6427 175.9679,-81.5427 181.568,-85.7427"/>
</g>
<!-- Node7 -->
<g id="node8" class="node">
<title>Node7</title>
<polygon fill="none" stroke="#bfbfbf" points="240,-56.5 240,-75.5 288,-75.5 288,-56.5 240,-56.5"/>
<text text-anchor="middle" x="264" y="-63.5" font-family="Helvetica,sans-Serif" font-size="10.00" fill="#000000">thread</text>
</g>
<!-- Node0&#45;&gt;Node7 -->
<g id="edge7" class="edge">
<title>Node0&#45;&gt;Node7</title>
<path fill="none" stroke="#191970" d="M169.5973,-112.3733C187.7331,-103.4644 214.9135,-90.1127 235.4587,-80.0203"/>
<polygon fill="#191970" stroke="#191970" points="237.2261,-83.0517 244.6584,-75.5011 234.1397,-76.7688 237.2261,-83.0517"/>
</g>
<!-- Node2 -->
<g id="node3" class="node">
<title>Node2</title>
<polygon fill="none" stroke="#bfbfbf" points=".5,-.5 .5,-19.5 53.5,-19.5 53.5,-.5 .5,-.5"/>
<text text-anchor="middle" x="27" y="-7.5" font-family="Helvetica,sans-Serif" font-size="10.00" fill="#000000">cstddef</text>
</g>
<!-- Node1&#45;&gt;Node2 -->
<g id="edge2" class="edge">
<title>Node1&#45;&gt;Node2</title>
<path fill="none" stroke="#191970" d="M27,-56.2455C27,-48.9382 27,-38.6944 27,-29.7046"/>
<polygon fill="#191970" stroke="#191970" points="30.5001,-29.6426 27,-19.6427 23.5001,-29.6427 30.5001,-29.6426"/>
</g>
<!-- Node4 -->
<g id="node5" class="node">
<title>Node4</title>
<polygon fill="none" stroke="#bfbfbf" points="79,-.5 79,-19.5 123,-19.5 123,-.5 79,-.5"/>
<text text-anchor="middle" x="101" y="-7.5" font-family="Helvetica,sans-Serif" font-size="10.00" fill="#000000">string</text>
</g>
<!-- Node3&#45;&gt;Node4 -->
<g id="edge4" class="edge">
<title>Node3&#45;&gt;Node4</title>
<path fill="none" stroke="#191970" d="M106.7807,-56.2455C105.8673,-48.9382 104.5868,-38.6944 103.4631,-29.7046"/>
<polygon fill="#191970" stroke="#191970" points="106.9187,-29.1313 102.2053,-19.6427 99.9728,-29.9996 106.9187,-29.1313"/>
</g>
<!-- Node5 -->
<g id="node6" class="node">
<title>Node5</title>
<polygon fill="none" stroke="#bfbfbf" points="141,-.5 141,-19.5 195,-19.5 195,-.5 141,-.5"/>
<text text-anchor="middle" x="168" y="-7.5" font-family="Helvetica,sans-Serif" font-size="10.00" fill="#000000">random</text>
</g>
<!-- Node3&#45;&gt;Node5 -->
<g id="edge5" class="edge">
<title>Node3&#45;&gt;Node5</title>
<path fill="none" stroke="#191970" d="M118.4512,-56.2455C127.2269,-48.0549 139.9554,-36.1749 150.314,-26.5069"/>
<polygon fill="#191970" stroke="#191970" points="152.7461,-29.0246 157.6686,-19.6427 147.9699,-23.9072 152.7461,-29.0246"/>
</g>
</g>
</svg>
