<?xml version="1.0" encoding="UTF-8" standalone="no"?>
<!DOCTYPE svg PUBLIC "-//W3C//DTD SVG 1.1//EN"
 "http://www.w3.org/Graphics/SVG/1.1/DTD/svg11.dtd">
<!-- Generated by graphviz version 2.40.1 (20161225.0304)
 -->
<!-- Title: async/include/workers_pool.h Pages: 1 -->
<svg width="359pt" height="162pt"
 viewBox="0.00 0.00 358.50 162.00" xmlns="http://www.w3.org/2000/svg" xmlns:xlink="http://www.w3.org/1999/xlink">
<g id="graph0" class="graph" transform="scale(1 1) rotate(0) translate(4 158)">
<title>async/include/workers_pool.h</title>
<!-- Node8 -->
<g id="node1" class="node">
<title>Node8</title>
<polygon fill="#bfbfbf" stroke="#000000" points="138.5,-123.5 138.5,-153.5 263.5,-153.5 263.5,-123.5 138.5,-123.5"/>
<text text-anchor="start" x="146.5" y="-141.5" font-family="Helvetica,sans-Serif" font-size="10.00" fill="#000000">async/include/workers</text>
<text text-anchor="middle" x="201" y="-130.5" font-family="Helvetica,sans-Serif" font-size="10.00" fill="#000000">_pool.h</text>
</g>
<!-- Node9 -->
<g id="node2" class="node">
<title>Node9</title>
<g id="a_node2"><a xlink:href="bulk__proc_8h_source.html" target="_top" xlink:title="async/include/bulk\l_proc.h">
<polygon fill="none" stroke="#000000" points="74.5,-56.5 74.5,-86.5 181.5,-86.5 181.5,-56.5 74.5,-56.5"/>
<text text-anchor="start" x="82.5" y="-74.5" font-family="Helvetica,sans-Serif" font-size="10.00" fill="#000000">async/include/bulk</text>
<text text-anchor="middle" x="128" y="-63.5" font-family="Helvetica,sans-Serif" font-size="10.00" fill="#000000">_proc.h</text>
</a>
</g>
</g>
<!-- Node8&#45;&gt;Node9 -->
<g id="edge1" class="edge">
<title>Node8&#45;&gt;Node9</title>
<path fill="none" stroke="#191970" d="M177.026,-116.4965C166.3733,-106.7193 154.1007,-95.4554 144.4993,-86.6432"/>
<polygon fill="#191970" stroke="#191970" points="174.7011,-119.1134 184.4352,-123.2967 179.4344,-113.9562 174.7011,-119.1134"/>
</g>
<!-- Node12 -->
<g id="node5" class="node">
<title>Node12</title>
<g id="a_node5"><a xlink:href="workers__pool_8cpp.html" target="_top" xlink:title="Simple thread pool implementation. ">
<polygon fill="none" stroke="#000000" points="199.5,-62 199.5,-81 350.5,-81 350.5,-62 199.5,-62"/>
<text text-anchor="middle" x="275" y="-69" font-family="Helvetica,sans-Serif" font-size="10.00" fill="#000000">async/src/workers_pool.cpp</text>
</a>
</g>
</g>
<!-- Node8&#45;&gt;Node12 -->
<g id="edge4" class="edge">
<title>Node8&#45;&gt;Node12</title>
<path fill="none" stroke="#191970" d="M225.2537,-116.5406C238.5196,-104.5296 254.2759,-90.2637 264.4467,-81.055"/>
<polygon fill="#191970" stroke="#191970" points="222.8556,-113.9903 217.7917,-123.2967 227.5539,-119.1794 222.8556,-113.9903"/>
</g>
<!-- Node10 -->
<g id="node3" class="node">
<title>Node10</title>
<g id="a_node3"><a xlink:href="async_8cpp.html" target="_top" xlink:title="async library implementation ">
<polygon fill="none" stroke="#000000" points="0,-.5 0,-19.5 114,-19.5 114,-.5 0,-.5"/>
<text text-anchor="middle" x="57" y="-7.5" font-family="Helvetica,sans-Serif" font-size="10.00" fill="#000000">async/src/async.cpp</text>
</a>
</g>
</g>
<!-- Node9&#45;&gt;Node10 -->
<g id="edge2" class="edge">
<title>Node9&#45;&gt;Node10</title>
<path fill="none" stroke="#191970" d="M102.6587,-49.5494C90.9308,-39.3907 77.5876,-27.8329 68.368,-19.8469"/>
<polygon fill="#191970" stroke="#191970" points="100.5992,-52.396 110.4494,-56.2977 105.1823,-47.1049 100.5992,-52.396"/>
</g>
<!-- Node11 -->
<g id="node4" class="node">
<title>Node11</title>
<polygon fill="none" stroke="#bfbfbf" points="132.5,-.5 132.5,-19.5 265.5,-19.5 265.5,-.5 132.5,-.5"/>
<text text-anchor="middle" x="199" y="-7.5" font-family="Helvetica,sans-Serif" font-size="10.00" fill="#000000">async/src/bulk_proc.cpp</text>
</g>
<!-- Node9&#45;&gt;Node11 -->
<g id="edge3" class="edge">
<title>Node9&#45;&gt;Node11</title>
<path fill="none" stroke="#191970" d="M153.3413,-49.5494C165.0692,-39.3907 178.4124,-27.8329 187.632,-19.8469"/>
<polygon fill="#191970" stroke="#191970" points="150.8177,-47.1049 145.5506,-56.2977 155.4008,-52.396 150.8177,-47.1049"/>
</g>
</g>
</svg>
