<?xml version="1.0" encoding="UTF-8" standalone="no"?>
<!DOCTYPE svg PUBLIC "-//W3C//DTD SVG 1.1//EN"
 "http://www.w3.org/Graphics/SVG/1.1/DTD/svg11.dtd">
<!-- Generated by graphviz version 2.40.1 (20161225.0304)
 -->
<!-- Title: async/include/workers_pool.h Pages: 1 -->
<svg width="542pt" height="95pt"
 viewBox="0.00 0.00 542.00 95.00" xmlns="http://www.w3.org/2000/svg" xmlns:xlink="http://www.w3.org/1999/xlink">
<g id="graph0" class="graph" transform="scale(1 1) rotate(0) translate(4 91)">
<title>async/include/workers_pool.h</title>
<!-- Node0 -->
<g id="node1" class="node">
<title>Node0</title>
<polygon fill="#bfbfbf" stroke="#000000" points="177.5,-56.5 177.5,-86.5 302.5,-86.5 302.5,-56.5 177.5,-56.5"/>
<text text-anchor="start" x="185.5" y="-74.5" font-family="Helvetica,sans-Serif" font-size="10.00" fill="#000000">async/include/workers</text>
<text text-anchor="middle" x="240" y="-63.5" font-family="Helvetica,sans-Serif" font-size="10.00" fill="#000000">_pool.h</text>
</g>
<!-- Node1 -->
<g id="node2" class="node">
<title>Node1</title>
<polygon fill="none" stroke="#bfbfbf" points="0,-.5 0,-19.5 48,-19.5 48,-.5 0,-.5"/>
<text text-anchor="middle" x="24" y="-7.5" font-family="Helvetica,sans-Serif" font-size="10.00" fill="#000000">thread</text>
</g>
<!-- Node0&#45;&gt;Node1 -->
<g id="edge1" class="edge">
<title>Node0&#45;&gt;Node1</title>
<path fill="none" stroke="#191970" d="M185.4678,-56.4595C151.3165,-46.9697 106.1555,-34.2935 57.8374,-20.209"/>
<polygon fill="#191970" stroke="#191970" points="58.7143,-16.8189 48.134,-17.3738 56.7511,-23.538 58.7143,-16.8189"/>
</g>
<!-- Node2 -->
<g id="node3" class="node">
<title>Node2</title>
<polygon fill="none" stroke="#bfbfbf" points="66.5,-.5 66.5,-19.5 113.5,-19.5 113.5,-.5 66.5,-.5"/>
<text text-anchor="middle" x="90" y="-7.5" font-family="Helvetica,sans-Serif" font-size="10.00" fill="#000000">vector</text>
</g>
<!-- Node0&#45;&gt;Node2 -->
<g id="edge2" class="edge">
<title>Node0&#45;&gt;Node2</title>
<path fill="none" stroke="#191970" d="M203.3059,-56.4554C178.6073,-46.329 146.3326,-33.0964 122.5494,-23.3453"/>
<polygon fill="#191970" stroke="#191970" points="123.825,-20.0855 113.2447,-19.5303 121.1694,-26.5623 123.825,-20.0855"/>
</g>
<!-- Node3 -->
<g id="node4" class="node">
<title>Node3</title>
<polygon fill="none" stroke="#bfbfbf" points="131.5,-.5 131.5,-19.5 196.5,-19.5 196.5,-.5 131.5,-.5"/>
<text text-anchor="middle" x="164" y="-7.5" font-family="Helvetica,sans-Serif" font-size="10.00" fill="#000000">functional</text>
</g>
<!-- Node0&#45;&gt;Node3 -->
<g id="edge3" class="edge">
<title>Node0&#45;&gt;Node3</title>
<path fill="none" stroke="#191970" d="M221.2135,-56.2977C209.8947,-47.1384 195.4895,-35.4816 183.9654,-26.1562"/>
<polygon fill="#191970" stroke="#191970" points="186.1439,-23.4167 176.1686,-19.8469 181.7405,-28.8583 186.1439,-23.4167"/>
</g>
<!-- Node4 -->
<g id="node5" class="node">
<title>Node4</title>
<polygon fill="none" stroke="#bfbfbf" points="215,-.5 215,-19.5 265,-19.5 265,-.5 215,-.5"/>
<text text-anchor="middle" x="240" y="-7.5" font-family="Helvetica,sans-Serif" font-size="10.00" fill="#000000">atomic</text>
</g>
<!-- Node0&#45;&gt;Node4 -->
<g id="edge4" class="edge">
<title>Node0&#45;&gt;Node4</title>
<path fill="none" stroke="#191970" d="M240,-56.2977C240,-48.3834 240,-38.6043 240,-30.0759"/>
<polygon fill="#191970" stroke="#191970" points="243.5001,-29.8469 240,-19.8469 236.5001,-29.847 243.5001,-29.8469"/>
</g>
<!-- Node5 -->
<g id="node6" class="node">
<title>Node5</title>
<polygon fill="none" stroke="#bfbfbf" points="283.5,-.5 283.5,-19.5 390.5,-19.5 390.5,-.5 283.5,-.5"/>
<text text-anchor="middle" x="337" y="-7.5" font-family="Helvetica,sans-Serif" font-size="10.00" fill="#000000">condition_variable</text>
</g>
<!-- Node0&#45;&gt;Node5 -->
<g id="edge5" class="edge">
<title>Node0&#45;&gt;Node5</title>
<path fill="none" stroke="#191970" d="M263.9775,-56.2977C278.9376,-46.8127 298.122,-34.6495 313.0726,-25.1705"/>
<polygon fill="#191970" stroke="#191970" points="315.1873,-27.9739 321.7587,-19.6633 311.439,-22.062 315.1873,-27.9739"/>
</g>
<!-- Node6 -->
<g id="node7" class="node">
<title>Node6</title>
<polygon fill="none" stroke="#bfbfbf" points="408.5,-.5 408.5,-19.5 455.5,-19.5 455.5,-.5 408.5,-.5"/>
<text text-anchor="middle" x="432" y="-7.5" font-family="Helvetica,sans-Serif" font-size="10.00" fill="#000000">queue</text>
</g>
<!-- Node0&#45;&gt;Node6 -->
<g id="edge6" class="edge">
<title>Node0&#45;&gt;Node6</title>
<path fill="none" stroke="#191970" d="M286.9685,-56.4554C321.4795,-45.4011 367.5467,-30.6452 398.4156,-20.7575"/>
<polygon fill="#191970" stroke="#191970" points="399.8073,-23.987 408.263,-17.6033 397.6719,-17.3206 399.8073,-23.987"/>
</g>
<!-- Node7 -->
<g id="node8" class="node">
<title>Node7</title>
<polygon fill="none" stroke="#bfbfbf" points="474,-.5 474,-19.5 534,-19.5 534,-.5 474,-.5"/>
<text text-anchor="middle" x="504" y="-7.5" font-family="Helvetica,sans-Serif" font-size="10.00" fill="#000000">iostream</text>
</g>
<!-- Node0&#45;&gt;Node7 -->
<g id="edge7" class="edge">
<title>Node0&#45;&gt;Node7</title>
<path fill="none" stroke="#191970" d="M302.6602,-57.6161C345.4722,-48.0243 403.7486,-34.7622 463.751,-20.2625"/>
<polygon fill="#191970" stroke="#191970" points="464.8918,-23.5874 473.7857,-17.8298 463.2426,-16.7844 464.8918,-23.5874"/>
</g>
</g>
</svg>
