<?xml version="1.0" encoding="UTF-8" standalone="no"?>
<!DOCTYPE svg PUBLIC "-//W3C//DTD SVG 1.1//EN"
 "http://www.w3.org/Graphics/SVG/1.1/DTD/svg11.dtd">
<!-- Generated by graphviz version 2.40.1 (20161225.0304)
 -->
<!-- Title: async/src/workers_pool.cpp Pages: 1 -->
<svg width="542pt" height="140pt"
 viewBox="0.00 0.00 542.00 140.00" xmlns="http://www.w3.org/2000/svg" xmlns:xlink="http://www.w3.org/1999/xlink">
<g id="graph0" class="graph" transform="scale(1 1) rotate(0) translate(4 136)">
<title>async/src/workers_pool.cpp</title>
<!-- Node0 -->
<g id="node1" class="node">
<title>Node0</title>
<polygon fill="#bfbfbf" stroke="#000000" points="164.5,-112.5 164.5,-131.5 315.5,-131.5 315.5,-112.5 164.5,-112.5"/>
<text text-anchor="middle" x="240" y="-119.5" font-family="Helvetica,sans-Serif" font-size="10.00" fill="#000000">async/src/workers_pool.cpp</text>
</g>
<!-- Node1 -->
<g id="node2" class="node">
<title>Node1</title>
<g id="a_node2"><a xlink:href="workers__pool_8h.html" target="_top" xlink:title="Simple thread pool declaration. ">
<polygon fill="none" stroke="#000000" points="194.5,-56.5 194.5,-75.5 285.5,-75.5 285.5,-56.5 194.5,-56.5"/>
<text text-anchor="middle" x="240" y="-63.5" font-family="Helvetica,sans-Serif" font-size="10.00" fill="#000000">workers_pool.h</text>
</a>
</g>
</g>
<!-- Node0&#45;&gt;Node1 -->
<g id="edge1" class="edge">
<title>Node0&#45;&gt;Node1</title>
<path fill="none" stroke="#191970" d="M240,-112.2455C240,-104.9382 240,-94.6944 240,-85.7046"/>
<polygon fill="#191970" stroke="#191970" points="243.5001,-85.6426 240,-75.6427 236.5001,-85.6427 243.5001,-85.6426"/>
</g>
<!-- Node2 -->
<g id="node3" class="node">
<title>Node2</title>
<polygon fill="none" stroke="#bfbfbf" points="0,-.5 0,-19.5 48,-19.5 48,-.5 0,-.5"/>
<text text-anchor="middle" x="24" y="-7.5" font-family="Helvetica,sans-Serif" font-size="10.00" fill="#000000">thread</text>
</g>
<!-- Node1&#45;&gt;Node2 -->
<g id="edge2" class="edge">
<title>Node1&#45;&gt;Node2</title>
<path fill="none" stroke="#191970" d="M199.8721,-56.4996C164.8038,-48.0661 112.3013,-35.1261 57.9234,-20.1679"/>
<polygon fill="#191970" stroke="#191970" points="58.683,-16.7466 48.1117,-17.4523 56.8157,-23.493 58.683,-16.7466"/>
</g>
<!-- Node3 -->
<g id="node4" class="node">
<title>Node3</title>
<polygon fill="none" stroke="#bfbfbf" points="66.5,-.5 66.5,-19.5 113.5,-19.5 113.5,-.5 66.5,-.5"/>
<text text-anchor="middle" x="90" y="-7.5" font-family="Helvetica,sans-Serif" font-size="10.00" fill="#000000">vector</text>
</g>
<!-- Node1&#45;&gt;Node3 -->
<g id="edge3" class="edge">
<title>Node1&#45;&gt;Node3</title>
<path fill="none" stroke="#191970" d="M214.2141,-56.3733C189.1477,-47.0151 150.95,-32.7547 123.5336,-22.5192"/>
<polygon fill="#191970" stroke="#191970" points="124.5575,-19.1656 113.965,-18.9469 122.1092,-25.7235 124.5575,-19.1656"/>
</g>
<!-- Node4 -->
<g id="node5" class="node">
<title>Node4</title>
<polygon fill="none" stroke="#bfbfbf" points="131.5,-.5 131.5,-19.5 196.5,-19.5 196.5,-.5 131.5,-.5"/>
<text text-anchor="middle" x="164" y="-7.5" font-family="Helvetica,sans-Serif" font-size="10.00" fill="#000000">functional</text>
</g>
<!-- Node1&#45;&gt;Node4 -->
<g id="edge4" class="edge">
<title>Node1&#45;&gt;Node4</title>
<path fill="none" stroke="#191970" d="M226.7618,-56.2455C215.319,-47.814 198.5704,-35.4729 185.2525,-25.6598"/>
<polygon fill="#191970" stroke="#191970" points="187.2133,-22.757 177.0865,-19.6427 183.0609,-28.3924 187.2133,-22.757"/>
</g>
<!-- Node5 -->
<g id="node6" class="node">
<title>Node5</title>
<polygon fill="none" stroke="#bfbfbf" points="215,-.5 215,-19.5 265,-19.5 265,-.5 215,-.5"/>
<text text-anchor="middle" x="240" y="-7.5" font-family="Helvetica,sans-Serif" font-size="10.00" fill="#000000">atomic</text>
</g>
<!-- Node1&#45;&gt;Node5 -->
<g id="edge5" class="edge">
<title>Node1&#45;&gt;Node5</title>
<path fill="none" stroke="#191970" d="M240,-56.2455C240,-48.9382 240,-38.6944 240,-29.7046"/>
<polygon fill="#191970" stroke="#191970" points="243.5001,-29.6426 240,-19.6427 236.5001,-29.6427 243.5001,-29.6426"/>
</g>
<!-- Node6 -->
<g id="node7" class="node">
<title>Node6</title>
<polygon fill="none" stroke="#bfbfbf" points="283.5,-.5 283.5,-19.5 390.5,-19.5 390.5,-.5 283.5,-.5"/>
<text text-anchor="middle" x="337" y="-7.5" font-family="Helvetica,sans-Serif" font-size="10.00" fill="#000000">condition_variable</text>
</g>
<!-- Node1&#45;&gt;Node6 -->
<g id="edge6" class="edge">
<title>Node1&#45;&gt;Node6</title>
<path fill="none" stroke="#191970" d="M256.8961,-56.2455C271.918,-47.5731 294.1043,-34.7645 311.321,-24.825"/>
<polygon fill="#191970" stroke="#191970" points="313.3871,-27.6737 320.2975,-19.6427 309.8872,-21.6114 313.3871,-27.6737"/>
</g>
<!-- Node7 -->
<g id="node8" class="node">
<title>Node7</title>
<polygon fill="none" stroke="#bfbfbf" points="408.5,-.5 408.5,-19.5 455.5,-19.5 455.5,-.5 408.5,-.5"/>
<text text-anchor="middle" x="432" y="-7.5" font-family="Helvetica,sans-Serif" font-size="10.00" fill="#000000">queue</text>
</g>
<!-- Node1&#45;&gt;Node7 -->
<g id="edge7" class="edge">
<title>Node1&#45;&gt;Node7</title>
<path fill="none" stroke="#191970" d="M274.0875,-56.4444C304.4979,-47.8655 350.4746,-34.763 398.6026,-20.3801"/>
<polygon fill="#191970" stroke="#191970" points="399.679,-23.7114 408.253,-17.4874 397.6691,-17.0062 399.679,-23.7114"/>
</g>
<!-- Node8 -->
<g id="node9" class="node">
<title>Node8</title>
<polygon fill="none" stroke="#bfbfbf" points="474,-.5 474,-19.5 534,-19.5 534,-.5 474,-.5"/>
<text text-anchor="middle" x="504" y="-7.5" font-family="Helvetica,sans-Serif" font-size="10.00" fill="#000000">iostream</text>
</g>
<!-- Node1&#45;&gt;Node8 -->
<g id="edge8" class="edge">
<title>Node1&#45;&gt;Node8</title>
<path fill="none" stroke="#191970" d="M285.8218,-57.3194C329.253,-48.9377 396.546,-35.5545 463.8716,-20.1819"/>
<polygon fill="#191970" stroke="#191970" points="464.8402,-23.5506 473.8022,-17.8997 463.2724,-16.7284 464.8402,-23.5506"/>
</g>
</g>
</svg>
